<svg width="432" height="263" viewBox="0 0 432 263" fill="none" xmlns="http://www.w3.org/2000/svg">
<path d="M299.182 31.728C276.008 32.9505 275.035 33.9341 273.779 57.0205C272.565 33.9622 271.577 32.9786 248.375 31.728C271.535 30.5196 272.523 29.536 273.779 6.43555C275.035 29.5079 276.008 30.5196 299.182 31.728Z" fill="#FF293F"/>
<path d="M139.915 56.3461C134.447 47.23 126.56 39.7912 117.122 34.8474C106.881 29.57 95.4857 26.9049 83.9561 27.0911H82.4601V0H66.6817V27.0911H65.1857C53.7385 26.9412 42.435 29.6412 32.3021 34.9458C22.7416 39.9375 14.7561 47.4676 9.23083 56.7013C3.70559 65.9351 0.856462 76.5118 0.999256 87.2591C0.86314 98.119 3.71335 108.809 9.24131 118.172C14.7043 127.294 22.5985 134.73 32.0481 139.657C42.2851 144.945 53.6825 147.615 65.2139 147.427H66.7099V183.862H82.4601V147.427H83.9561C95.4038 147.581 106.708 144.88 116.84 139.572C121.592 137.053 125.987 133.916 129.908 130.242C133.753 126.626 137.077 122.498 139.788 117.975C145.357 108.698 148.239 98.0667 148.114 87.2591C148.264 76.403 145.428 65.713 139.915 56.3461ZM66.6817 132.828H65.1857C56.6806 132.97 48.2757 130.985 40.7418 127.053C33.7064 123.326 27.8446 117.733 23.806 110.894C19.6704 103.707 17.5683 95.5398 17.7233 87.2591C17.5812 78.9745 19.698 70.8065 23.8484 63.6247C27.8869 56.7849 33.7487 51.1919 40.7841 47.4656C48.3181 43.5336 56.723 41.5479 65.228 41.6905H66.724L66.6817 132.828ZM82.4601 41.6905H83.9561C92.4612 41.5479 100.866 43.5336 108.4 47.4656C115.458 51.206 121.324 56.8373 125.336 63.723C129.441 70.8855 131.542 79.0133 131.419 87.2591C131.533 95.5075 129.423 103.635 125.308 110.795C121.296 117.681 115.43 123.312 108.372 127.053C100.838 130.985 92.433 132.97 83.9279 132.828H82.4601V41.6905Z" fill="#1C1E23"/>
<path d="M209.225 62.3601V72.2944L173.378 91.7556V62.3601H159.928V128.275H173.378V105.385L209.225 85.9243V128.275H222.689V62.3601H209.225Z" fill="#1C1E23"/>
<path d="M314.636 128.149H302.584L297.291 79.4045L296.374 84.8283C293.41 102.336 291.053 115.193 289.388 123.034C287.638 131.114 285.62 137.338 283.362 141.512C281.103 145.685 277.787 148.06 273.821 148.074C269.855 148.088 266.666 145.882 264.295 141.582C261.924 137.282 259.948 131.254 258.141 123.132C256.448 115.474 253.978 102.645 250.803 85.0391L249.843 79.6293L244.974 127.769V128.388H233.316L240.373 63.147V62.5428H257.224H257.845L257.944 63.1049C262.686 89.1421 266.412 107.999 268.98 119.128C271.111 128.275 272.438 132.125 273.214 133.755L273.934 135.315L274.611 133.755C275.345 132.097 276.644 128.135 278.704 119.086C281.16 108.224 284.73 89.3388 289.331 63.0065L289.43 62.4304H306.902L314.481 127.488L314.636 128.149Z" fill="#1C1E23"/>
<path d="M115.132 180.645H115.301L120.241 192.715H122.541L127.396 180.63H127.551L127.594 192.743L130.67 192.729L130.614 175.094L126.69 175.108L121.469 187.909H121.271L115.964 175.15L112.041 175.164L112.097 192.799L115.174 192.785L115.132 180.645Z" fill="#1C1E23"/>
<path d="M148.863 175.867C147.577 175.13 146.112 174.76 144.629 174.799C143.168 174.789 141.73 175.168 140.465 175.895C139.221 176.638 138.217 177.721 137.572 179.015C136.828 180.53 136.469 182.204 136.528 183.89C136.485 185.574 136.853 187.242 137.6 188.752C138.261 190.041 139.273 191.117 140.522 191.858C141.808 192.592 143.273 192.961 144.756 192.925C146.213 192.942 147.647 192.563 148.905 191.829C150.122 191.081 151.101 190.005 151.728 188.724C152.445 187.183 152.817 185.505 152.817 183.806C152.817 182.107 152.445 180.429 151.728 178.888C151.071 177.637 150.079 176.591 148.863 175.867ZM149.032 187.235C148.674 188.092 148.07 188.825 147.296 189.342C146.528 189.806 145.647 190.052 144.749 190.052C143.85 190.052 142.969 189.806 142.201 189.342C141.427 188.827 140.819 188.1 140.451 187.249C140.01 186.175 139.794 185.022 139.816 183.862C139.779 182.702 139.99 181.548 140.437 180.476C140.794 179.653 141.382 178.95 142.131 178.453C142.892 177.966 143.781 177.716 144.685 177.736C145.586 177.711 146.474 177.951 147.24 178.424C148.009 178.94 148.612 179.668 148.975 180.518C149.803 182.7 149.803 185.108 148.975 187.291L149.032 187.235Z" fill="#1C1E23"/>
<path d="M162.297 191.787C163.582 192.524 165.048 192.889 166.531 192.841C167.493 192.85 168.448 192.688 169.353 192.363C170.181 192.072 170.947 191.628 171.611 191.057C172.248 190.506 172.779 189.844 173.178 189.103C173.573 188.367 173.835 187.569 173.954 186.743H170.708C170.561 187.689 170.056 188.544 169.297 189.132C168.918 189.414 168.493 189.628 168.041 189.764C167.555 189.908 167.051 189.979 166.545 189.975C165.648 190.001 164.764 189.762 164.004 189.286C163.22 188.785 162.605 188.06 162.24 187.207C161.394 185.028 161.394 182.613 162.24 180.434C162.603 179.58 163.206 178.848 163.976 178.326C164.743 177.839 165.635 177.585 166.545 177.595C167.056 177.592 167.565 177.663 168.055 177.806C168.511 177.95 168.941 178.168 169.325 178.453C169.696 178.742 170.007 179.1 170.242 179.506C170.504 179.938 170.681 180.415 170.765 180.912H173.997C173.882 179.991 173.595 179.099 173.15 178.284C172.726 177.541 172.166 176.883 171.499 176.345C170.82 175.813 170.05 175.409 169.226 175.15C168.315 174.86 167.361 174.722 166.404 174.743C164.946 174.722 163.51 175.101 162.254 175.839C161.04 176.59 160.061 177.666 159.432 178.944C158.734 180.476 158.373 182.138 158.373 183.82C158.373 185.502 158.734 187.164 159.432 188.696C160.068 189.98 161.063 191.053 162.297 191.787Z" fill="#1C1E23"/>
<path d="M183.044 192.546L183.016 184.846L184.596 184.832L190.439 192.518L194.391 192.504L187.066 182.935L194.038 174.869L190.086 174.883L183.806 182.162H183.001L182.973 174.912L179.77 174.926L179.84 192.56L183.044 192.546Z" fill="#1C1E23"/>
<path d="M201.716 191.647C202.986 192.361 204.42 192.736 205.879 192.736C207.338 192.736 208.772 192.361 210.043 191.647C211.263 190.897 212.243 189.814 212.865 188.527C213.572 186.998 213.938 185.335 213.938 183.652C213.938 181.968 213.572 180.305 212.865 178.776C212.204 177.491 211.191 176.42 209.944 175.684C208.658 174.947 207.193 174.578 205.71 174.617C204.249 174.607 202.812 174.985 201.546 175.713C200.303 176.456 199.299 177.538 198.653 178.832C197.951 180.36 197.588 182.021 197.588 183.701C197.588 185.381 197.951 187.042 198.653 188.57C199.351 189.871 200.415 190.94 201.716 191.647ZM201.561 180.279C201.91 179.425 202.51 178.695 203.282 178.186C204.051 177.717 204.935 177.47 205.837 177.47C206.738 177.47 207.622 177.717 208.391 178.186C209.161 178.702 209.764 179.429 210.127 180.279C210.955 182.462 210.955 184.87 210.127 187.052C209.784 187.888 209.197 188.602 208.442 189.103C207.688 189.603 206.8 189.868 205.893 189.862C204.992 189.878 204.105 189.634 203.339 189.16C202.565 188.644 201.957 187.917 201.589 187.066C201.149 185.992 200.933 184.84 200.954 183.68C200.91 182.516 201.117 181.357 201.561 180.279Z" fill="#1C1E23"/>
<path d="M227.147 192.392C228.305 192.431 229.457 192.215 230.52 191.759C231.345 191.392 232.042 190.791 232.524 190.031C232.964 189.286 233.189 188.435 233.174 187.572C233.201 186.771 233.005 185.979 232.609 185.282C232.267 184.701 231.781 184.217 231.198 183.876C230.653 183.539 230.032 183.346 229.391 183.314V183.132C229.947 182.999 230.473 182.765 230.944 182.443C231.414 182.13 231.797 181.705 232.059 181.207C232.35 180.638 232.491 180.004 232.468 179.366C232.486 178.527 232.253 177.702 231.798 176.996C231.343 176.291 230.687 175.736 229.914 175.403C228.901 174.979 227.808 174.778 226.71 174.813H219.936V192.448L227.147 192.392ZM229.518 185.914C229.782 186.335 229.919 186.823 229.914 187.319C229.924 187.643 229.861 187.966 229.729 188.263C229.597 188.559 229.399 188.823 229.151 189.033C228.416 189.548 227.521 189.787 226.625 189.708H223.182V184.551H226.724C227.313 184.533 227.898 184.654 228.432 184.902C228.878 185.137 229.253 185.486 229.518 185.914ZM226.371 177.399C227.145 177.338 227.912 177.574 228.516 178.059C228.754 178.271 228.943 178.531 229.069 178.822C229.196 179.113 229.258 179.428 229.25 179.745C229.275 180.242 229.142 180.734 228.869 181.15C228.607 181.53 228.246 181.831 227.825 182.022C227.355 182.234 226.844 182.34 226.329 182.331H223.153V177.469L226.371 177.399Z" fill="#1C1E23"/>
<path d="M242.335 191.506C243.62 192.245 245.085 192.614 246.568 192.574C247.529 192.57 248.483 192.408 249.391 192.096C250.219 191.798 250.984 191.35 251.649 190.776C252.289 190.227 252.82 189.565 253.216 188.822C253.616 188.089 253.879 187.289 253.992 186.462H250.76C250.673 186.96 250.491 187.437 250.224 187.867C249.982 188.261 249.666 188.605 249.292 188.879C248.915 189.163 248.49 189.378 248.036 189.511C247.577 189.645 247.103 189.721 246.625 189.736C245.723 189.751 244.836 189.507 244.07 189.033C243.29 188.531 242.68 187.806 242.32 186.954C241.474 184.775 241.474 182.36 242.32 180.181C242.674 179.321 243.279 178.587 244.056 178.073C244.82 177.591 245.707 177.337 246.611 177.342C247.128 177.337 247.642 177.413 248.135 177.567C248.592 177.7 249.018 177.919 249.391 178.214C249.762 178.501 250.078 178.854 250.323 179.253C250.58 179.686 250.752 180.162 250.831 180.659H254.063C253.956 179.74 253.668 178.852 253.216 178.045C252.804 177.294 252.242 176.634 251.565 176.106C250.895 175.565 250.129 175.155 249.306 174.897C248.393 174.615 247.44 174.478 246.484 174.49C245.027 174.479 243.594 174.857 242.335 175.586C241.114 176.336 240.134 177.418 239.512 178.705C238.814 180.237 238.453 181.899 238.453 183.581C238.453 185.263 238.814 186.925 239.512 188.457C240.147 189.717 241.125 190.773 242.335 191.506Z" fill="#1C1E23"/>
<path d="M267.06 182.668L274.032 174.603L270.08 174.617L263.814 181.881H263.01L262.981 174.631L259.764 174.645L259.834 192.279L263.038 192.265L263.01 184.565L264.59 184.551L270.447 192.251L274.399 192.237L267.06 182.668Z" fill="#1C1E23"/>
<path d="M295.511 192.153L289.203 174.546H285.251L279.027 192.209H282.457L283.868 187.853H290.53L291.941 192.195L295.511 192.153ZM284.8 185.282L287.171 178.172H287.312L289.739 185.197L284.8 185.282Z" fill="#1C1E23"/>
<path d="M304.207 192.124L307.664 185.661H310.925V192.124H314.142L314.072 174.49H307.424C306.242 174.467 305.069 174.712 303.995 175.207C303.112 175.646 302.383 176.341 301.906 177.202C301.416 178.107 301.172 179.125 301.201 180.153C301.171 181.18 301.425 182.196 301.934 183.089C302.427 183.935 303.172 184.608 304.066 185.014L304.404 185.141L300.594 192.167L304.207 192.124ZM304.87 178.523C305.119 178.067 305.517 177.709 305.999 177.511C306.614 177.249 307.278 177.124 307.947 177.146H310.896V183.005H307.961C307.292 183.024 306.626 182.914 305.999 182.682C305.529 182.486 305.133 182.147 304.87 181.712C304.629 181.215 304.503 180.67 304.503 180.118C304.503 179.565 304.629 179.02 304.87 178.523Z" fill="#1C1E23"/>
<path d="M126.803 210.138L121.596 222.925L121.384 222.939L116.091 210.166L112.168 210.18L112.224 227.815H115.301L115.259 215.675H115.428L120.368 227.745L122.654 227.731L127.509 215.646H127.678L127.721 227.773L130.797 227.759L130.741 210.124L126.803 210.138Z" fill="#1C1E23"/>
<path d="M142.314 210.082L136.133 227.745H139.562L140.974 223.389H147.635L149.046 227.731H152.462L146.167 210.124L142.314 210.082ZM141.863 220.803L144.234 213.693H144.375L146.802 220.719L141.863 220.803Z" fill="#1C1E23"/>
<path d="M160.478 226.817C161.764 227.554 163.229 227.923 164.712 227.885C165.674 227.881 166.628 227.714 167.534 227.394C168.362 227.102 169.128 226.658 169.793 226.087C171.069 224.976 171.9 223.444 172.135 221.773H168.946C168.861 222.27 168.684 222.746 168.424 223.178C168.181 223.576 167.859 223.92 167.478 224.19C167.106 224.474 166.685 224.689 166.236 224.822C165.75 224.964 165.247 225.039 164.74 225.047C163.821 225.071 162.916 224.814 162.146 224.312C161.377 223.81 160.78 223.086 160.436 222.237C159.983 221.161 159.761 220.002 159.786 218.836C159.75 217.681 159.962 216.531 160.407 215.464C160.77 214.61 161.373 213.878 162.143 213.356C162.909 212.867 163.802 212.613 164.712 212.626C165.223 212.622 165.732 212.693 166.222 212.836C166.678 212.98 167.108 213.199 167.492 213.483C167.86 213.776 168.17 214.133 168.41 214.536C168.671 214.968 168.848 215.445 168.932 215.942H172.164C172.045 215.026 171.758 214.14 171.317 213.328C170.897 212.578 170.336 211.915 169.666 211.375C168.987 210.844 168.217 210.439 167.393 210.181C166.48 209.897 165.527 209.76 164.571 209.773C163.114 209.758 161.68 210.137 160.421 210.869C159.207 211.62 158.228 212.696 157.599 213.974C156.902 215.509 156.541 217.173 156.541 218.857C156.541 220.541 156.902 222.206 157.599 223.74C158.244 225.019 159.243 226.086 160.478 226.817Z" fill="#1C1E23"/>
<path d="M185.556 212.611L191.032 212.583L191.018 209.914L176.891 209.956V212.64L182.367 212.626L182.423 227.576L185.598 227.562L185.556 212.611Z" fill="#1C1E23"/>
<path d="M208.208 227.492L208.194 224.808L199.811 224.836L199.797 220.031L207.503 220.003V217.319L199.783 217.347L199.769 212.555L208.081 212.527L208.067 209.857L196.551 209.9L196.607 227.534L208.208 227.492Z" fill="#1C1E23"/>
<path d="M226.457 218.639C226.951 217.71 227.195 216.669 227.163 215.618C227.18 214.576 226.932 213.547 226.443 212.626C225.965 211.744 225.232 211.025 224.34 210.56C223.28 210.023 222.1 209.762 220.911 209.801H214.264V227.436H217.481V221.478H220.869C222.067 221.517 223.256 221.256 224.326 220.719C225.232 220.257 225.976 219.532 226.457 218.639ZM223.536 217.305C223.286 217.791 222.892 218.188 222.407 218.443C221.802 218.74 221.133 218.885 220.459 218.864H217.496V212.485H220.431C221.112 212.45 221.792 212.585 222.407 212.878C222.896 213.115 223.293 213.505 223.536 213.988C223.799 214.496 223.93 215.061 223.917 215.633C223.921 216.212 223.791 216.784 223.536 217.305Z" fill="#1C1E23"/>
<path d="M245.734 225.82C246.366 225.267 246.892 224.606 247.287 223.867C247.694 223.136 247.957 222.335 248.063 221.506H244.831C244.749 222.003 244.572 222.48 244.309 222.911C244.063 223.31 243.742 223.658 243.363 223.937C242.986 224.21 242.567 224.418 242.121 224.555C241.638 224.709 241.133 224.785 240.625 224.78C239.723 224.8 238.835 224.556 238.071 224.077C237.298 223.573 236.69 222.855 236.321 222.012C235.863 220.933 235.641 219.769 235.672 218.597C235.635 217.442 235.847 216.292 236.293 215.225C236.663 214.375 237.264 213.645 238.029 213.117C238.791 212.635 239.68 212.385 240.583 212.401C241.1 212.382 241.616 212.453 242.107 212.611C243.02 212.886 243.799 213.486 244.295 214.298C244.556 214.729 244.734 215.206 244.817 215.703H248.049C247.932 214.785 247.64 213.898 247.188 213.089C246.781 212.338 246.224 211.678 245.551 211.15C244.873 210.614 244.103 210.205 243.279 209.942C242.388 209.666 241.46 209.528 240.527 209.534C239.07 209.523 237.637 209.901 236.377 210.63C235.159 211.383 234.18 212.464 233.555 213.75C232.812 215.266 232.449 216.939 232.496 218.625C232.461 220.312 232.829 221.983 233.569 223.501C234.224 224.785 235.233 225.857 236.476 226.593C237.762 227.329 239.227 227.699 240.71 227.66C241.671 227.662 242.626 227.5 243.533 227.183C244.343 226.864 245.089 226.402 245.734 225.82Z" fill="#1C1E23"/>
<path d="M268.147 209.647L264.195 209.661L257.929 216.925H257.124L257.096 209.675L253.893 209.689L253.949 227.323H257.153L257.124 219.609H258.705L264.562 227.295L268.514 227.281L261.175 217.712L268.147 209.647Z" fill="#1C1E23"/>
<path d="M279.367 209.604L273.199 227.267H276.615L278.026 222.911H284.687L286.169 227.253H289.599L283.29 209.633L279.367 209.604ZM278.929 220.326L281.3 213.216H281.427L283.855 220.241L278.929 220.326Z" fill="#1C1E23"/>
<path d="M305.04 220.691V227.155H308.257V209.52H301.61C300.43 209.481 299.258 209.727 298.195 210.237C297.302 210.661 296.567 211.354 296.092 212.218C295.601 213.123 295.358 214.141 295.386 215.169C295.364 216.2 295.617 217.218 296.12 218.119C296.622 218.955 297.364 219.621 298.251 220.03L298.59 220.157L294.779 227.183H298.364L301.822 220.719L305.04 220.691ZM298.985 213.581C299.238 213.128 299.635 212.772 300.114 212.569C300.735 212.312 301.403 212.188 302.076 212.204H305.011V218.049H302.048C301.421 218.085 300.793 217.999 300.199 217.796C299.725 217.601 299.325 217.261 299.056 216.827C298.806 216.34 298.68 215.8 298.689 215.253C298.643 214.68 298.745 214.104 298.985 213.581Z" fill="#1C1E23"/>
<path d="M344.385 209.38L341.252 209.394L341.309 224.372L335.875 224.387L335.833 209.408L332.686 209.422L332.742 224.401L327.28 224.429L327.224 209.436L324.062 209.45L324.119 227.084L344.456 227.014L344.385 209.38Z" fill="#1C1E23"/>
<path d="M354.153 226.986L362.466 214.944H362.607L362.649 226.944H365.867L365.797 209.31H362.918L354.633 221.366H354.464L354.422 209.352H351.246L351.303 226.986H354.153Z" fill="#1C1E23"/>
<path d="M385.469 211.909L385.455 209.239L371.328 209.281V211.965L376.804 211.951L376.86 226.902L380.036 226.888L379.994 211.937L385.469 211.909Z" fill="#1C1E23"/>
<path d="M403.407 224.176C403.902 223.321 404.163 222.352 404.163 221.365C404.163 220.379 403.902 219.41 403.407 218.555C402.856 217.735 402.076 217.095 401.163 216.714C400.056 216.25 398.863 216.025 397.662 216.054H394.247V209.253H391.029V226.888H397.662C398.864 226.913 400.055 226.668 401.148 226.171C402.083 225.743 402.869 225.049 403.407 224.176ZM400.584 222.771C400.316 223.225 399.924 223.595 399.455 223.839C398.893 224.129 398.267 224.274 397.634 224.26H394.219V218.64H397.634C398.527 218.572 399.411 218.849 400.104 219.412C400.379 219.65 400.599 219.943 400.75 220.273C400.901 220.603 400.979 220.961 400.979 221.323C400.987 221.814 400.865 222.299 400.626 222.728L400.584 222.771Z" fill="#1C1E23"/>
<path d="M415.544 209.127C414.361 209.104 413.188 209.349 412.114 209.843C411.231 210.282 410.502 210.978 410.025 211.839C409.528 212.741 409.285 213.761 409.32 214.789C409.29 215.817 409.544 216.832 410.054 217.726C410.544 218.571 411.29 219.24 412.185 219.637C412.294 219.692 412.407 219.739 412.523 219.778L408.713 226.803H412.284L415.741 220.34H419.015V226.803H422.233V209.169L415.544 209.127ZM416.052 217.656C415.383 217.674 414.717 217.565 414.09 217.333C413.618 217.141 413.221 216.8 412.961 216.363C412.72 215.866 412.594 215.321 412.594 214.768C412.594 214.216 412.72 213.671 412.961 213.174C413.21 212.717 413.608 212.36 414.09 212.162C414.704 211.899 415.369 211.775 416.038 211.796H418.987V217.656H416.052Z" fill="#1C1E23"/>
<path d="M429.177 224.302V225.272C429.136 226.04 429.051 226.804 428.923 227.562C428.796 228.321 428.655 228.967 428.514 229.6C428.373 230.232 428.274 230.682 428.189 231.005H430.306L430.843 229.515C431.069 228.883 431.28 228.195 431.478 227.436C431.672 226.712 431.813 225.974 431.901 225.23L432 224.288L429.177 224.302Z" fill="#1C1E23"/>
<path d="M123.558 254.246C123.009 253.906 122.382 253.713 121.737 253.684V253.501C122.298 253.371 122.829 253.137 123.304 252.813C123.77 252.495 124.152 252.071 124.419 251.576C124.703 251.005 124.844 250.373 124.828 249.735C124.829 248.913 124.604 248.107 124.179 247.403C123.72 246.678 123.051 246.109 122.259 245.773C121.251 245.349 120.163 245.147 119.07 245.183H112.281L112.352 262.817L119.55 262.761C120.702 262.8 121.85 262.584 122.908 262.129C123.738 261.77 124.437 261.167 124.912 260.4C125.356 259.657 125.586 258.806 125.576 257.941C125.589 257.142 125.395 256.353 125.011 255.651C124.657 255.065 124.156 254.581 123.558 254.246ZM115.499 247.838H118.745C119.519 247.777 120.286 248.014 120.89 248.499C121.126 248.711 121.313 248.972 121.437 249.263C121.561 249.554 121.62 249.869 121.61 250.185C121.647 250.681 121.518 251.175 121.243 251.59C120.976 251.97 120.61 252.271 120.185 252.461C119.716 252.675 119.204 252.781 118.689 252.77H115.513L115.499 247.838ZM121.511 259.473C120.781 259.988 119.89 260.227 118.999 260.147H115.541V254.991H119.084C119.673 254.973 120.258 255.093 120.791 255.342C121.247 255.568 121.632 255.913 121.906 256.339C122.164 256.763 122.301 257.249 122.302 257.745C122.314 258.074 122.249 258.402 122.111 258.702C121.974 259.002 121.769 259.266 121.511 259.473Z" fill="#1C1E23"/>
<path d="M149.214 245.087L145.996 245.099L146.058 262.733L149.276 262.722L149.214 245.087Z" fill="#1C1E23"/>
<path d="M141.495 252.574C140.388 252.114 139.195 251.893 137.995 251.927H134.58V245.126H131.334L131.405 262.761H138.038C139.239 262.786 140.431 262.541 141.524 262.044C142.44 261.627 143.215 260.953 143.754 260.105C144.268 259.258 144.532 258.284 144.516 257.295C144.537 256.301 144.262 255.323 143.725 254.485C143.186 253.644 142.411 252.979 141.495 252.574ZM140.959 258.658C140.695 259.11 140.308 259.48 139.844 259.726C139.284 260.018 138.656 260.159 138.024 260.133H134.608V254.513H138.024C138.917 254.456 139.799 254.737 140.493 255.3C140.767 255.534 140.987 255.825 141.135 256.153C141.284 256.481 141.359 256.837 141.354 257.197C141.355 257.71 141.219 258.214 140.959 258.658Z" fill="#1C1E23"/>
<path d="M173.266 245L173.308 259.979L167.889 260.007L167.832 245.014L164.699 245.028L164.756 260.007L159.28 260.035L159.223 245.042L156.076 245.056L156.133 262.691L176.47 262.62L176.399 244.986L173.266 245Z" fill="#1C1E23"/>
<path d="M194.927 244.93L186.643 256.972H186.474L186.431 244.958L183.256 244.972L183.312 262.606L186.163 262.592L194.476 250.55H194.617L194.659 262.564L197.877 262.55L197.806 244.916L194.927 244.93Z" fill="#1C1E23"/>
<path d="M215.702 253.923C215.151 253.589 214.526 253.396 213.882 253.361V253.192C214.44 253.056 214.97 252.822 215.448 252.503C215.915 252.181 216.297 251.752 216.563 251.253C216.848 250.687 216.989 250.059 216.972 249.426C216.983 248.599 216.758 247.785 216.323 247.08C215.86 246.359 215.192 245.791 214.404 245.45C213.397 245.024 212.307 244.827 211.214 244.874H204.426L204.496 262.508H211.666C212.819 262.536 213.965 262.316 215.025 261.862C215.854 261.503 216.554 260.9 217.029 260.133C217.473 259.39 217.702 258.539 217.692 257.674C217.712 256.874 217.517 256.084 217.128 255.384C216.785 254.784 216.295 254.281 215.702 253.923ZM207.644 247.515H210.89C211.663 247.454 212.431 247.69 213.035 248.176C213.271 248.388 213.457 248.648 213.581 248.94C213.706 249.231 213.765 249.546 213.755 249.862C213.778 250.334 213.65 250.802 213.388 251.197C213.124 251.58 212.757 251.882 212.329 252.068C211.861 252.283 211.349 252.389 210.833 252.377H207.658L207.644 247.515ZM213.656 259.164C212.919 259.666 212.034 259.903 211.144 259.838H207.686V254.667H211.285C211.876 254.647 212.462 254.773 212.992 255.033C213.451 255.245 213.837 255.585 214.105 256.011C214.373 256.438 214.511 256.932 214.503 257.435C214.504 257.769 214.428 258.098 214.281 258.398C214.134 258.697 213.92 258.959 213.656 259.164Z" fill="#1C1E23"/>
<path d="M237.733 244.775L233.781 244.789L227.515 252.054L226.71 252.068L226.682 244.817L223.479 244.831L223.535 262.466L226.753 262.452L226.725 254.738H228.291L234.148 262.424L238.1 262.41L230.775 252.841L237.733 244.775Z" fill="#1C1E23"/>
<path d="M254.965 244.719L246.68 256.761H246.525L246.483 244.747L243.293 244.761L243.349 262.396L246.2 262.381L254.513 250.339H254.654L254.696 262.353L257.914 262.339L257.844 244.705L254.965 244.719Z" fill="#1C1E23"/>
<path d="M284.898 244.606L276.614 256.663H276.444L276.402 244.635L273.227 244.649L273.283 262.283H276.134L284.446 250.241H284.588L284.63 262.241H287.848L287.777 244.606H284.898Z" fill="#1C1E23"/>
<path d="M303.5 244.55L303.556 262.185L306.732 262.171L306.69 247.192L314.438 247.164L314.494 262.143L317.67 262.129L317.613 244.494L303.5 244.55Z" fill="#1C1E23"/>
<path d="M327.661 259.417L327.646 254.611L335.352 254.583V251.899L327.632 251.927L327.618 247.136L335.931 247.108L335.917 244.438L324.4 244.48L324.457 262.115L336.044 262.072V259.389L327.661 259.417Z" fill="#1C1E23"/>
<path d="M352.613 244.382V252.686L352.133 252.798L351.004 252.925L349.79 253.037H348.661C348.029 253.109 347.389 253.071 346.77 252.925C346.278 252.769 345.862 252.439 345.599 251.997C345.309 251.453 345.167 250.843 345.189 250.227V244.466H341.971V250.227C341.926 251.356 342.211 252.473 342.79 253.445C343.349 254.278 344.159 254.913 345.105 255.257C346.234 255.668 347.431 255.864 348.633 255.833C349.023 255.854 349.414 255.854 349.804 255.833L351.004 255.721L352.161 255.524L352.613 255.398V262.128H355.774V244.494L352.613 244.382Z" fill="#1C1E23"/>
<path d="M367.545 244.325L361.363 261.988H364.793L366.204 257.632H372.865L374.347 261.974H377.819L371.511 244.368L367.545 244.325ZM367.093 255.047L369.464 247.937H369.605L372.033 255.033L367.093 255.047Z" fill="#1C1E23"/>
<path d="M394.233 244.227L380.105 244.283L380.12 246.953L385.581 246.939L385.638 261.89H388.827L388.771 246.925L394.247 246.911L394.233 244.227Z" fill="#1C1E23"/>
<path d="M411.437 244.171L403.153 256.227H402.998L402.955 244.199L399.766 244.213L399.836 261.847L402.673 261.833L410.986 249.791H411.141L411.183 261.805L414.387 261.791L414.33 244.157L411.437 244.171Z" fill="#1C1E23"/>
</svg>
