<svg width="113" height="67" viewBox="0 0 113 67" fill="none" xmlns="http://www.w3.org/2000/svg">
<g clip-path="url(#clip0_300_2912)">
<path d="M107.432 11.5619C99.0829 12.0073 98.7321 12.3658 98.2795 20.7785C97.8422 12.376 97.4863 12.0176 89.1268 11.5619C97.471 11.1215 97.827 10.7631 98.2795 2.34521C98.7321 10.7529 99.0829 11.1215 107.432 11.5619Z" fill="#FF293F"/>
<path d="M50.0498 20.5327C48.0797 17.2107 45.2383 14.5 41.8378 12.6985C38.1482 10.7754 34.0425 9.80422 29.8885 9.87207H29.3495V0H23.6647V9.87207H23.1257C19.0013 9.81746 14.9288 10.8013 11.278 12.7344C7.83344 14.5533 4.95634 17.2973 2.96565 20.6621C0.974958 24.0269 -0.0515576 27.8811 -0.000110011 31.7975C-0.0491515 35.7549 0.977752 39.6504 2.96943 43.0623C4.93768 46.3862 7.78188 49.0961 11.1865 50.8913C14.8748 52.8184 18.9812 53.7915 23.1358 53.7229H23.6748V67H29.3495V53.7229H29.8885C34.0129 53.7788 38.0858 52.7948 41.7361 50.8606C43.4485 49.9426 45.0319 48.7993 46.4447 47.4607C47.8298 46.1427 49.0276 44.6385 50.004 42.9906C52.0106 39.6098 53.0489 35.7358 53.0041 31.7975C53.058 27.8415 52.0364 23.946 50.0498 20.5327ZM23.6647 48.4028H23.1257C20.0614 48.4548 17.0332 47.7312 14.3187 46.2984C11.784 44.9405 9.67202 42.9024 8.21696 40.4099C6.72693 37.7913 5.96956 34.815 6.0254 31.7975C5.9742 28.7785 6.73686 25.8021 8.23222 23.185C9.68727 20.6926 11.7992 18.6545 14.334 17.2966C17.0484 15.8638 20.0766 15.1402 23.1409 15.1921H23.6799L23.6647 48.4028ZM29.3495 15.1921H29.8885C32.9528 15.1402 35.981 15.8638 38.6954 17.2966C41.2382 18.6596 43.3518 20.7117 44.7972 23.2209C46.2763 25.8309 47.0331 28.7927 46.9887 31.7975C47.03 34.8032 46.2697 37.7651 44.787 40.3741C43.3416 42.8833 41.2281 44.9353 38.6852 46.2984C35.9708 47.7312 32.9426 48.4548 29.8783 48.4028H29.3495V15.1921Z" fill="#1F242E"/>
<path d="M75.0215 22.7241V26.3442L62.1061 33.4359V22.7241H57.2603V46.7438H62.1061V38.4027L75.0215 31.311V46.7438H79.8725V22.7241H75.0215Z" fill="#1F242E"/>
<path d="M113 46.6977H108.658L106.751 28.9352L106.42 30.9116C105.352 37.2916 104.503 41.9767 103.903 44.8339C103.273 47.7781 102.546 50.0464 101.732 51.5672C100.919 53.0879 99.7236 53.9533 98.2947 53.9584C96.8659 53.9635 95.7167 53.1596 94.8625 51.5928C94.0082 50.026 93.2964 47.8293 92.6455 44.8697C92.0353 42.0791 91.1455 37.4042 90.0014 30.9884L89.6556 29.0171L87.9014 46.5595V46.7848H83.7013L86.2437 23.0109V22.7907H92.315H92.5387L92.5743 22.9955C94.2828 32.4836 95.6252 39.3551 96.5506 43.4104C97.3184 46.7438 97.7964 48.1468 98.0761 48.7407L98.3354 49.3091L98.5795 48.7407C98.8439 48.1365 99.3117 46.6926 100.054 43.3951C100.939 39.437 102.225 32.5553 103.883 22.9597L103.919 22.7498H110.214L112.944 46.4571L113 46.6977Z" fill="#1F242E"/>
</g>
<defs>
<clipPath id="clip0_300_2912">
<rect width="113" height="67" fill="white"/>
</clipPath>
</defs>
</svg>
