<svg width="479" height="430" viewBox="0 0 479 430" fill="none" xmlns="http://www.w3.org/2000/svg">
<path d="M80.6537 279.293H80.7991L85.0401 289.671H87.0152L91.1836 279.281H91.3168L91.3532 289.695L93.9948 289.683L93.9463 274.521L90.5777 274.533L86.0943 285.539H85.9247L81.3686 274.569L78 274.581L78.0485 289.744L80.69 289.732L80.6537 279.293Z" fill="#1C1E23"/>
<path d="M109.613 275.185C108.51 274.551 107.252 274.234 105.978 274.267C104.724 274.259 103.49 274.584 102.404 275.209C101.336 275.848 100.474 276.779 99.9196 277.892C99.2804 279.195 98.9725 280.634 99.0229 282.084C98.9859 283.531 99.3019 284.966 99.9438 286.264C100.511 287.372 101.38 288.298 102.452 288.934C103.557 289.566 104.814 289.883 106.087 289.852C107.339 289.866 108.57 289.541 109.65 288.91C110.695 288.267 111.535 287.341 112.073 286.24C112.689 284.915 113.009 283.472 113.009 282.011C113.009 280.551 112.689 279.108 112.073 277.783C111.51 276.707 110.658 275.808 109.613 275.185ZM109.759 284.959C109.451 285.696 108.933 286.327 108.268 286.772C107.609 287.17 106.852 287.381 106.081 287.381C105.31 287.381 104.553 287.17 103.894 286.772C103.23 286.329 102.708 285.703 102.392 284.971C102.013 284.048 101.827 283.057 101.846 282.06C101.814 281.062 101.996 280.07 102.379 279.148C102.686 278.441 103.191 277.836 103.833 277.408C104.487 276.99 105.25 276.775 106.027 276.792C106.8 276.771 107.563 276.977 108.22 277.384C108.881 277.828 109.399 278.453 109.71 279.184C110.421 281.061 110.421 283.131 109.71 285.008L109.759 284.959Z" fill="#1C1E23"/>
<path d="M121.15 288.874C122.254 289.507 123.513 289.821 124.785 289.78C125.611 289.788 126.432 289.648 127.209 289.369C127.919 289.118 128.577 288.737 129.147 288.246C129.694 287.772 130.15 287.203 130.493 286.566C130.831 285.933 131.057 285.247 131.159 284.537H128.372C128.246 285.35 127.812 286.085 127.16 286.59C126.835 286.833 126.47 287.017 126.082 287.134C125.665 287.258 125.232 287.319 124.797 287.315C124.028 287.338 123.268 287.132 122.616 286.723C121.943 286.292 121.415 285.669 121.102 284.935C120.375 283.062 120.375 280.985 121.102 279.112C121.413 278.377 121.931 277.748 122.592 277.3C123.25 276.881 124.017 276.662 124.797 276.671C125.236 276.668 125.673 276.729 126.094 276.853C126.486 276.976 126.854 277.164 127.184 277.408C127.503 277.657 127.77 277.965 127.972 278.314C128.197 278.685 128.349 279.095 128.42 279.523H131.195C131.097 278.731 130.85 277.964 130.468 277.263C130.104 276.624 129.623 276.059 129.051 275.596C128.468 275.139 127.807 274.791 127.1 274.569C126.317 274.319 125.498 274.201 124.676 274.219C123.424 274.2 122.192 274.526 121.114 275.161C120.071 275.807 119.231 276.732 118.69 277.831C118.091 279.148 117.781 280.577 117.781 282.024C117.781 283.47 118.091 284.899 118.69 286.216C119.236 287.32 120.091 288.242 121.15 288.874Z" fill="#1C1E23"/>
<path d="M138.962 289.526L138.937 282.906L140.294 282.893L145.311 289.502L148.704 289.49L142.415 281.262L148.401 274.328L145.008 274.34L139.616 280.598H138.925L138.901 274.364L136.15 274.376L136.211 289.538L138.962 289.526Z" fill="#1C1E23"/>
<path d="M154.993 288.753C156.084 289.367 157.315 289.69 158.568 289.69C159.82 289.69 161.052 289.367 162.143 288.753C163.191 288.108 164.032 287.177 164.566 286.071C165.173 284.756 165.487 283.326 165.487 281.879C165.487 280.431 165.173 279.001 164.566 277.686C163.998 276.582 163.129 275.66 162.058 275.028C160.954 274.394 159.696 274.077 158.423 274.11C157.168 274.102 155.934 274.427 154.848 275.052C153.78 275.692 152.918 276.622 152.364 277.735C151.761 279.048 151.449 280.476 151.449 281.921C151.449 283.366 151.761 284.793 152.364 286.107C152.963 287.226 153.877 288.146 154.993 288.753ZM154.86 278.979C155.16 278.244 155.675 277.617 156.338 277.179C156.999 276.776 157.758 276.563 158.532 276.563C159.306 276.563 160.064 276.776 160.725 277.179C161.386 277.623 161.903 278.248 162.215 278.979C162.926 280.855 162.926 282.926 162.215 284.802C161.92 285.521 161.416 286.135 160.769 286.565C160.121 286.996 159.359 287.224 158.58 287.219C157.806 287.232 157.044 287.022 156.387 286.615C155.722 286.172 155.201 285.546 154.884 284.814C154.506 283.891 154.321 282.9 154.339 281.903C154.301 280.902 154.479 279.905 154.86 278.979Z" fill="#1C1E23"/>
<path d="M176.829 289.393C177.822 289.427 178.811 289.241 179.725 288.85C180.432 288.534 181.031 288.017 181.445 287.364C181.823 286.724 182.016 285.992 182.003 285.249C182.026 284.561 181.858 283.88 181.518 283.28C181.224 282.781 180.807 282.365 180.306 282.072C179.839 281.782 179.305 281.616 178.755 281.589V281.432C179.232 281.317 179.684 281.117 180.088 280.84C180.492 280.571 180.821 280.205 181.045 279.776C181.296 279.287 181.417 278.742 181.397 278.194C181.413 277.473 181.212 276.763 180.822 276.156C180.431 275.549 179.868 275.073 179.204 274.787C178.334 274.422 177.396 274.249 176.453 274.279H170.637V289.442L176.829 289.393ZM178.864 283.824C179.091 284.186 179.209 284.605 179.204 285.032C179.212 285.311 179.158 285.588 179.045 285.843C178.932 286.098 178.762 286.325 178.549 286.506C177.918 286.948 177.149 287.154 176.38 287.086H173.424V282.652H176.465C176.971 282.637 177.473 282.74 177.931 282.954C178.315 283.155 178.637 283.456 178.864 283.824ZM176.162 276.502C176.826 276.45 177.485 276.653 178.004 277.07C178.208 277.252 178.37 277.476 178.479 277.726C178.588 277.976 178.641 278.247 178.634 278.52C178.655 278.947 178.541 279.37 178.307 279.728C178.082 280.055 177.772 280.314 177.41 280.477C177.007 280.66 176.568 280.751 176.126 280.743H173.399V276.563L176.162 276.502Z" fill="#1C1E23"/>
<path d="M189.866 288.632C190.969 289.267 192.227 289.585 193.501 289.55C194.326 289.546 195.144 289.408 195.924 289.14C196.635 288.883 197.292 288.498 197.863 288.004C198.412 287.533 198.869 286.963 199.208 286.325C199.552 285.694 199.778 285.006 199.875 284.295H197.1C197.025 284.723 196.869 285.133 196.639 285.503C196.432 285.842 196.16 286.137 195.84 286.373C195.516 286.618 195.151 286.802 194.761 286.917C194.367 287.032 193.96 287.097 193.549 287.11C192.775 287.123 192.014 286.913 191.356 286.506C190.686 286.074 190.163 285.451 189.854 284.718C189.127 282.844 189.127 280.768 189.854 278.894C190.157 278.155 190.676 277.524 191.344 277.082C192 276.667 192.761 276.449 193.537 276.454C193.981 276.449 194.423 276.515 194.846 276.647C195.238 276.761 195.604 276.95 195.924 277.203C196.243 277.45 196.514 277.753 196.724 278.097C196.945 278.469 197.093 278.879 197.16 279.305H199.935C199.843 278.516 199.596 277.752 199.208 277.058C198.854 276.412 198.372 275.844 197.79 275.391C197.216 274.926 196.558 274.573 195.852 274.352C195.067 274.109 194.249 273.991 193.428 274.001C192.177 273.991 190.947 274.317 189.866 274.944C188.818 275.588 187.977 276.519 187.442 277.626C186.843 278.943 186.533 280.372 186.533 281.818C186.533 283.264 186.843 284.694 187.442 286.01C187.988 287.094 188.827 288.002 189.866 288.632Z" fill="#1C1E23"/>
<path d="M211.097 281.033L217.083 274.098L213.69 274.11L208.31 280.356H207.619L207.595 274.122L204.832 274.134L204.893 289.297L207.643 289.285L207.619 282.664L208.976 282.652L214.005 289.273L217.398 289.26L211.097 281.033Z" fill="#1C1E23"/>
<path d="M235.524 289.188L230.108 274.05H226.715L221.371 289.236H224.316L225.527 285.491H231.247L232.458 289.224L235.524 289.188ZM226.327 283.28L228.363 277.167H228.484L230.568 283.207L226.327 283.28Z" fill="#1C1E23"/>
<path d="M242.989 289.164L245.957 283.606H248.757V289.164H251.519L251.459 274.001H245.751C244.736 273.981 243.729 274.192 242.807 274.617C242.049 274.995 241.423 275.593 241.014 276.333C240.592 277.111 240.383 277.986 240.408 278.87C240.382 279.754 240.6 280.627 241.038 281.395C241.461 282.123 242.1 282.701 242.868 283.05L243.158 283.159L239.887 289.2L242.989 289.164ZM243.558 277.469C243.772 277.076 244.114 276.769 244.528 276.599C245.055 276.373 245.626 276.266 246.2 276.285H248.732V281.323H246.212C245.638 281.339 245.066 281.244 244.528 281.045C244.124 280.877 243.784 280.585 243.558 280.211C243.351 279.784 243.244 279.315 243.244 278.84C243.244 278.365 243.351 277.896 243.558 277.469Z" fill="#1C1E23"/>
<path d="M90.675 304.652L86.2037 315.647L86.0219 315.659L81.478 304.677L78.1094 304.689L78.1578 319.851H80.7994L80.7631 309.413H80.9085L85.1495 319.791L87.1125 319.779L91.2808 309.388H91.4262L91.4626 319.815L94.1041 319.803L94.0557 304.64L90.675 304.652Z" fill="#1C1E23"/>
<path d="M103.991 304.604L98.6836 319.791H101.628L102.84 316.046H108.559L109.771 319.779H112.703L107.299 304.64L103.991 304.604ZM103.603 313.823L105.639 307.709H105.76L107.844 313.75L103.603 313.823Z" fill="#1C1E23"/>
<path d="M119.587 318.993C120.691 319.627 121.949 319.944 123.222 319.912C124.048 319.908 124.868 319.765 125.646 319.489C126.357 319.238 127.014 318.857 127.585 318.365C128.68 317.41 129.394 316.093 129.596 314.656H126.858C126.785 315.083 126.633 315.493 126.409 315.864C126.201 316.206 125.925 316.502 125.597 316.734C125.278 316.979 124.917 317.163 124.531 317.278C124.114 317.399 123.682 317.465 123.247 317.471C122.457 317.492 121.68 317.271 121.02 316.839C120.359 316.408 119.847 315.785 119.551 315.055C119.162 314.13 118.972 313.134 118.993 312.131C118.962 311.138 119.144 310.149 119.527 309.231C119.838 308.497 120.356 307.868 121.017 307.419C121.675 306.999 122.441 306.78 123.222 306.791C123.661 306.788 124.098 306.849 124.519 306.972C124.911 307.096 125.279 307.284 125.609 307.528C125.925 307.78 126.192 308.087 126.397 308.434C126.622 308.805 126.774 309.215 126.845 309.642H129.62C129.518 308.855 129.272 308.093 128.893 307.395C128.532 306.75 128.051 306.18 127.476 305.716C126.893 305.259 126.232 304.911 125.525 304.689C124.74 304.445 123.922 304.327 123.101 304.338C121.85 304.326 120.619 304.651 119.539 305.281C118.496 305.926 117.656 306.852 117.115 307.951C116.517 309.27 116.207 310.701 116.207 312.149C116.207 313.597 116.517 315.028 117.115 316.348C117.669 317.447 118.527 318.365 119.587 318.993Z" fill="#1C1E23"/>
<path d="M141.12 306.779L145.821 306.755L145.809 304.459L133.68 304.495V306.803L138.381 306.791L138.43 319.646L141.156 319.634L141.12 306.779Z" fill="#1C1E23"/>
<path d="M160.567 319.573L160.555 317.266L153.358 317.29L153.346 313.158L159.962 313.134V310.826L153.333 310.85L153.321 306.731L160.458 306.706L160.446 304.411L150.559 304.447L150.607 319.61L160.567 319.573Z" fill="#1C1E23"/>
<path d="M176.235 311.962C176.659 311.163 176.868 310.268 176.841 309.364C176.855 308.468 176.643 307.583 176.223 306.791C175.812 306.033 175.183 305.414 174.417 305.015C173.507 304.553 172.494 304.329 171.473 304.363H165.766V319.525H168.528V314.402H171.436C172.465 314.436 173.486 314.212 174.405 313.75C175.183 313.353 175.821 312.729 176.235 311.962ZM173.727 310.814C173.512 311.232 173.174 311.574 172.757 311.793C172.238 312.049 171.664 312.173 171.085 312.155H168.54V306.67H171.061C171.646 306.64 172.229 306.756 172.757 307.008C173.177 307.212 173.518 307.547 173.727 307.963C173.953 308.399 174.065 308.885 174.054 309.376C174.058 309.874 173.946 310.367 173.727 310.814Z" fill="#1C1E23"/>
<path d="M192.787 318.136C193.33 317.661 193.781 317.092 194.12 316.456C194.47 315.828 194.696 315.139 194.787 314.427H192.012C191.941 314.854 191.789 315.264 191.564 315.635C191.352 315.978 191.077 316.277 190.752 316.517C190.428 316.751 190.068 316.931 189.685 317.048C189.27 317.181 188.837 317.246 188.401 317.242C187.626 317.259 186.864 317.049 186.208 316.638C185.544 316.204 185.022 315.587 184.705 314.862C184.312 313.934 184.122 312.933 184.148 311.926C184.117 310.932 184.298 309.944 184.681 309.026C184.999 308.295 185.515 307.668 186.171 307.214C186.826 306.799 187.589 306.585 188.365 306.598C188.808 306.582 189.251 306.643 189.673 306.779C190.457 307.015 191.126 307.531 191.552 308.229C191.776 308.6 191.928 309.01 192 309.437H194.775C194.674 308.648 194.423 307.885 194.036 307.19C193.686 306.544 193.208 305.977 192.63 305.522C192.048 305.062 191.387 304.71 190.679 304.483C189.914 304.246 189.117 304.128 188.316 304.133C187.066 304.123 185.835 304.449 184.754 305.075C183.707 305.722 182.867 306.653 182.33 307.758C181.693 309.061 181.381 310.5 181.422 311.95C181.392 313.4 181.707 314.837 182.342 316.142C182.905 317.246 183.771 318.168 184.839 318.8C185.943 319.433 187.2 319.751 188.474 319.718C189.299 319.72 190.119 319.581 190.897 319.308C191.593 319.034 192.233 318.637 192.787 318.136Z" fill="#1C1E23"/>
<path d="M212.029 304.23L208.637 304.242L203.257 310.488H202.566L202.542 304.254L199.791 304.266L199.839 319.428H202.59L202.566 312.796H203.923L208.952 319.404L212.344 319.392L206.044 311.165L212.029 304.23Z" fill="#1C1E23"/>
<path d="M221.662 304.193L216.367 319.38H219.3L220.511 315.635H226.231L227.503 319.368H230.447L225.031 304.218L221.662 304.193ZM221.287 313.412L223.322 307.298H223.432L225.516 313.339L221.287 313.412Z" fill="#1C1E23"/>
<path d="M243.704 313.726V319.283H246.467V304.121H240.759C239.746 304.088 238.74 304.299 237.827 304.737C237.061 305.102 236.429 305.698 236.021 306.441C235.6 307.219 235.391 308.094 235.416 308.978C235.396 309.864 235.614 310.74 236.046 311.515C236.476 312.233 237.114 312.806 237.875 313.158L238.166 313.267L234.895 319.308H237.972L240.941 313.75L243.704 313.726ZM238.505 307.613C238.723 307.223 239.064 306.917 239.475 306.743C240.008 306.522 240.582 306.415 241.159 306.429H243.68V311.455H241.135C240.597 311.485 240.058 311.412 239.548 311.237C239.141 311.069 238.797 310.777 238.566 310.403C238.352 309.985 238.244 309.52 238.251 309.05C238.212 308.557 238.3 308.062 238.505 307.613Z" fill="#1C1E23"/>
<path d="M277.486 304L274.796 304.012L274.844 316.891L270.179 316.903L270.143 304.024L267.441 304.036L267.489 316.915L262.8 316.94L262.751 304.048L260.037 304.061L260.086 319.223L277.547 319.163L277.486 304Z" fill="#1C1E23"/>
<path d="M285.871 319.138L293.008 308.784H293.129L293.166 319.102H295.928L295.868 303.94H293.396L286.283 314.306H286.138L286.101 303.976H283.375L283.423 319.138H285.871Z" fill="#1C1E23"/>
<path d="M312.759 306.175L312.747 303.879L300.617 303.916V306.223L305.319 306.211L305.367 319.066L308.094 319.054L308.057 306.199L312.759 306.175Z" fill="#1C1E23"/>
<path d="M328.16 316.722C328.585 315.987 328.809 315.154 328.809 314.306C328.809 313.457 328.585 312.624 328.16 311.889C327.688 311.185 327.018 310.634 326.233 310.307C325.283 309.907 324.259 309.714 323.228 309.739H320.296V303.891H317.533V319.054H323.228C324.26 319.076 325.283 318.865 326.221 318.438C327.024 318.07 327.698 317.473 328.16 316.722ZM325.737 315.514C325.506 315.905 325.17 316.223 324.767 316.432C324.285 316.682 323.747 316.807 323.204 316.795H320.272V311.962H323.204C323.97 311.904 324.73 312.142 325.325 312.626C325.561 312.831 325.75 313.083 325.879 313.367C326.009 313.65 326.076 313.958 326.076 314.27C326.083 314.692 325.978 315.108 325.773 315.478L325.737 315.514Z" fill="#1C1E23"/>
<path d="M338.582 303.783C337.566 303.763 336.559 303.974 335.637 304.399C334.879 304.776 334.253 305.374 333.844 306.114C333.417 306.891 333.208 307.767 333.238 308.652C333.212 309.535 333.43 310.408 333.868 311.177C334.289 311.903 334.929 312.478 335.698 312.82C335.791 312.867 335.889 312.908 335.988 312.941L332.717 318.981H335.782L338.751 313.424H341.562V318.981H344.325V303.819L338.582 303.783ZM339.018 311.116C338.444 311.132 337.872 311.038 337.333 310.838C336.928 310.673 336.588 310.38 336.364 310.005C336.157 309.577 336.049 309.108 336.049 308.633C336.049 308.159 336.157 307.69 336.364 307.262C336.578 306.87 336.92 306.563 337.333 306.392C337.861 306.167 338.432 306.059 339.006 306.078H341.538V311.116H339.018Z" fill="#1C1E23"/>
<path d="M350.286 316.831V317.664C350.25 318.324 350.177 318.982 350.068 319.634C349.959 320.286 349.837 320.842 349.716 321.386C349.595 321.929 349.51 322.316 349.438 322.594H351.255L351.716 321.313C351.909 320.769 352.091 320.177 352.261 319.525C352.427 318.902 352.549 318.268 352.624 317.628L352.709 316.819L350.286 316.831Z" fill="#1C1E23"/>
<path d="M87.8868 342.577C87.4159 342.285 86.8776 342.119 86.3236 342.094V341.937C86.8051 341.825 87.2613 341.624 87.6686 341.345C88.0687 341.072 88.3971 340.707 88.6259 340.281C88.8704 339.79 88.991 339.247 88.9773 338.699C88.9782 337.992 88.7855 337.299 88.4199 336.693C88.0262 336.07 87.4513 335.581 86.772 335.292C85.9067 334.927 84.9724 334.754 84.0335 334.784H78.2051L78.2657 349.947L84.4455 349.898C85.4353 349.932 86.4203 349.747 87.3294 349.355C88.0416 349.046 88.642 348.528 89.05 347.869C89.431 347.23 89.6281 346.498 89.6195 345.754C89.6309 345.067 89.4639 344.389 89.1348 343.785C88.8307 343.281 88.4007 342.865 87.8868 342.577ZM80.9678 337.068H83.7548C84.419 337.015 85.0781 337.218 85.5966 337.636C85.799 337.818 85.9592 338.042 86.0659 338.293C86.1726 338.543 86.2234 338.813 86.2146 339.085C86.2465 339.512 86.1357 339.937 85.8995 340.294C85.6699 340.62 85.3559 340.879 84.9907 341.043C84.5882 341.227 84.1491 341.318 83.7063 341.308H80.9799L80.9678 337.068ZM86.1298 347.071C85.5027 347.514 84.7381 347.719 83.9729 347.651H81.0042V343.217H84.0456C84.5513 343.202 85.0535 343.306 85.5118 343.519C85.9026 343.714 86.2333 344.01 86.469 344.377C86.6901 344.742 86.8074 345.159 86.8083 345.585C86.8188 345.869 86.7629 346.15 86.6451 346.408C86.5273 346.666 86.3509 346.893 86.1298 347.071Z" fill="#1C1E23"/>
<path d="M109.915 334.702L107.152 334.712L107.205 349.874L109.968 349.865L109.915 334.702Z" fill="#1C1E23"/>
<path d="M103.289 341.139C102.338 340.744 101.314 340.554 100.284 340.583H97.3514V334.736H94.5645L94.625 349.898H100.32C101.352 349.92 102.375 349.71 103.313 349.282C104.1 348.924 104.765 348.344 105.228 347.615C105.669 346.887 105.896 346.049 105.882 345.199C105.9 344.344 105.664 343.503 105.203 342.782C104.741 342.059 104.075 341.488 103.289 341.139ZM102.828 346.371C102.601 346.76 102.27 347.078 101.871 347.289C101.39 347.54 100.851 347.661 100.308 347.639H97.3757V342.807H100.308C101.075 342.758 101.832 343 102.429 343.483C102.664 343.685 102.852 343.935 102.98 344.217C103.107 344.499 103.172 344.805 103.168 345.114C103.168 345.556 103.051 345.989 102.828 346.371Z" fill="#1C1E23"/>
<path d="M130.565 334.627L130.602 347.506L125.949 347.53L125.9 334.639L123.21 334.651L123.259 347.53L118.557 347.555L118.509 334.663L115.807 334.676L115.855 349.838L133.316 349.778L133.255 334.615L130.565 334.627Z" fill="#1C1E23"/>
<path d="M149.165 334.567L142.053 344.921H141.907L141.871 334.591L139.145 334.603L139.193 349.766L141.641 349.753L148.778 339.399H148.899L148.935 349.729L151.698 349.717L151.637 334.555L149.165 334.567Z" fill="#1C1E23"/>
<path d="M167.002 342.299C166.529 342.012 165.992 341.846 165.439 341.816V341.671C165.919 341.554 166.374 341.353 166.784 341.079C167.184 340.802 167.513 340.433 167.741 340.004C167.986 339.517 168.107 338.977 168.093 338.433C168.101 337.721 167.908 337.022 167.535 336.415C167.137 335.795 166.564 335.308 165.887 335.014C165.023 334.648 164.087 334.479 163.149 334.518H157.32L157.381 349.681H163.536C164.527 349.705 165.51 349.516 166.42 349.125C167.133 348.817 167.733 348.298 168.141 347.639C168.522 347 168.719 346.268 168.711 345.525C168.728 344.837 168.56 344.157 168.226 343.556C167.932 343.04 167.511 342.607 167.002 342.299ZM160.083 336.79H162.87C163.534 336.737 164.193 336.941 164.712 337.358C164.914 337.54 165.074 337.764 165.181 338.015C165.288 338.265 165.339 338.536 165.33 338.807C165.35 339.214 165.24 339.616 165.015 339.955C164.788 340.285 164.473 340.545 164.106 340.704C163.704 340.89 163.264 340.981 162.822 340.97H160.095L160.083 336.79ZM165.245 346.806C164.613 347.237 163.852 347.441 163.088 347.385H160.119V342.939H163.209C163.717 342.922 164.22 343.03 164.675 343.254C165.069 343.436 165.401 343.728 165.631 344.095C165.861 344.462 165.98 344.887 165.972 345.32C165.973 345.606 165.908 345.889 165.782 346.147C165.656 346.405 165.472 346.63 165.245 346.806Z" fill="#1C1E23"/>
<path d="M185.916 334.434L182.523 334.446L177.143 340.692L176.453 340.704L176.428 334.47L173.678 334.482L173.726 349.645L176.489 349.633L176.465 343H177.81L182.838 349.608L186.231 349.596L179.942 341.369L185.916 334.434Z" fill="#1C1E23"/>
<path d="M200.71 334.386L193.598 344.74H193.464L193.428 334.41L190.689 334.422L190.738 349.584L193.186 349.572L200.323 339.218H200.444L200.48 349.548L203.243 349.536L203.182 334.373L200.71 334.386Z" fill="#1C1E23"/>
<path d="M226.412 334.289L219.299 344.655H219.153L219.117 334.313L216.391 334.325L216.439 349.488H218.887L226.024 339.134H226.145L226.181 349.451H228.944L228.883 334.289H226.412Z" fill="#1C1E23"/>
<path d="M242.383 334.241L242.431 349.403L245.158 349.391L245.121 336.512L251.774 336.488L251.822 349.367L254.549 349.355L254.5 334.192L242.383 334.241Z" fill="#1C1E23"/>
<path d="M263.127 347.023L263.115 342.891L269.731 342.867V340.559L263.103 340.583L263.091 336.464L270.228 336.439L270.216 334.144L260.328 334.18L260.377 349.343L270.325 349.306V346.999L263.127 347.023Z" fill="#1C1E23"/>
<path d="M284.551 334.096V341.236L284.139 341.333L283.169 341.441L282.127 341.538H281.158C280.615 341.6 280.066 341.567 279.534 341.441C279.112 341.307 278.754 341.024 278.528 340.644C278.279 340.176 278.158 339.651 278.177 339.122V334.168H275.414V339.122C275.375 340.092 275.619 341.053 276.117 341.888C276.597 342.605 277.293 343.151 278.104 343.447C279.074 343.8 280.102 343.968 281.133 343.942C281.469 343.96 281.804 343.96 282.139 343.942L283.169 343.846L284.163 343.676L284.551 343.568V349.355H287.265V334.192L284.551 334.096Z" fill="#1C1E23"/>
<path d="M297.37 334.047L292.062 349.234H295.007L296.219 345.489H301.938L303.21 349.222H306.191L300.775 334.083L297.37 334.047ZM296.982 343.266L299.018 337.152H299.139L301.223 343.253L296.982 343.266Z" fill="#1C1E23"/>
<path d="M320.284 333.963L308.154 334.011L308.166 336.306L312.856 336.294L312.904 349.149H315.643L315.594 336.282L320.296 336.27L320.284 333.963Z" fill="#1C1E23"/>
<path d="M335.056 333.914L327.943 344.281H327.81L327.774 333.939L325.035 333.951L325.096 349.113L327.531 349.101L334.668 338.747H334.802L334.838 349.077L337.589 349.065L337.54 333.902L335.056 333.914Z" fill="#1C1E23"/>
<path d="M100.215 143.912V132H114.879V143.912C144.052 143.912 163 161.105 163 186.997C163 213.296 144.239 230.631 114.926 230.631V244H100.215V230.631C70.7606 230.6 52 213.265 52 186.997C52 161.105 70.7606 143.912 100.215 143.912ZM100.215 218.108V156.403C79.5468 156.403 67.1023 168.001 67.1023 186.966C67.1023 206.353 79.5468 218.108 100.215 218.108ZM147.851 186.997C147.851 168.032 135.344 156.434 114.879 156.434V218.139C135.391 218.108 147.851 206.353 147.851 186.997Z" fill="#1C1E23"/>
<path d="M175.442 151.473C175.499 151.057 175.459 150.635 175.325 150.238C175.192 149.841 174.968 149.48 174.672 149.184C174.375 148.887 174.015 148.664 173.617 148.53C173.22 148.396 172.798 148.356 172.383 148.413H166.393V136.447H180.517C186.779 136.447 189.409 139.092 189.409 145.354V199.179C189.409 204.74 188.58 213.218 188.58 213.218H188.866C188.866 213.218 194.142 204.326 197.63 199.036L240.518 136.447H254.157V219.623C254.112 220.035 254.16 220.453 254.297 220.845C254.435 221.237 254.659 221.593 254.953 221.886C255.246 222.18 255.602 222.404 255.994 222.542C256.386 222.679 256.804 222.727 257.216 222.682H263.192V234.648H249.139C242.734 234.648 240.104 232.003 240.104 225.741V171.773C240.104 166.355 240.933 157.477 240.933 157.477H240.661C240.661 157.477 235.786 166.512 232.312 171.773L189.195 234.676H175.442V151.473Z" fill="#1C1E23"/>
<path d="M285.079 136.02H308.739C315.621 176.383 320.91 204.975 324.608 221.797C328.306 238.619 331.008 247.039 332.714 247.058C334.439 247.058 337.146 238.638 340.834 221.797C344.523 204.956 349.808 176.364 356.689 136.02H380.363L390.985 234.664H375.503L367.311 152.575C367.011 154.691 366.653 156.949 366.253 159.323C365.853 161.696 365.438 164.198 365.038 166.828C360.377 194.963 356.76 215.221 354.187 227.601C351.614 239.982 348.683 249.312 345.395 255.593C342.107 261.864 337.78 265 332.414 265C327.048 265 322.726 261.864 319.447 255.593C316.159 249.331 313.224 240.001 310.641 227.601C308.058 215.202 304.441 194.944 299.79 166.828C299.39 164.198 298.985 161.696 298.575 159.323C298.174 156.949 297.817 154.691 297.517 152.575L289.325 234.664H274.457L285.079 136.02Z" fill="#1C1E23"/>
<path d="M478.629 109.188C421.899 112.194 419.515 114.613 416.44 171.377C413.469 114.682 411.051 112.263 354.252 109.188C410.947 106.217 413.366 103.799 416.44 47C419.515 103.799 421.899 106.217 478.629 109.188Z" fill="#FF293F"/>
</svg>
