<?xml version="1.0" encoding="utf-8"?>
<!-- Generator: Adobe Illustrator 23.1.0, SVG Export Plug-In . SVG Version: 6.00 Build 0)  -->
<svg version="1.1" id="Слой_1" xmlns="http://www.w3.org/2000/svg" xmlns:xlink="http://www.w3.org/1999/xlink" x="0px" y="0px"
	 viewBox="0 0 430.1 218" style="enable-background:new 0 0 430.1 218;" xml:space="preserve">
<style type="text/css">
	.st0{fill:#1C1E23;}
	.st1{fill:#FF293F;}
</style>
<path class="st0" d="M49.8,96.9V85h14.7v11.9c29.2,0,48.1,17.2,48.1,43.1c0,26.3-18.8,43.6-48.1,43.6V197H49.8v-13.4
	c-29.5,0-48.2-17.4-48.2-43.6C1.6,114.1,20.3,96.9,49.8,96.9z M49.8,171.1v-61.7c-20.7,0-33.1,11.6-33.1,30.6
	C16.7,159.4,29.1,171.1,49.8,171.1z M97.4,140c0-19-12.5-30.6-33-30.6v61.7C85,171.1,97.4,159.4,97.4,140z"/>
<path class="st0" d="M125,104.5c0.1-0.4,0-0.8-0.1-1.2c-0.1-0.4-0.4-0.8-0.7-1.1c-0.3-0.3-0.7-0.5-1.1-0.7c-0.4-0.1-0.8-0.2-1.2-0.1
	h-6v-12h14.1c6.3,0,8.9,2.6,8.9,8.9v53.8c0,5.6-0.8,14-0.8,14h0.3c0,0,5.3-8.9,8.8-14.2l42.9-62.6h13.6v83.2c0,0.4,0,0.8,0.1,1.2
	c0.1,0.4,0.4,0.7,0.7,1c0.3,0.3,0.6,0.5,1,0.7c0.4,0.1,0.8,0.2,1.2,0.1h6v12h-14.1c-6.4,0-9-2.6-9-8.9v-54c0-5.4,0.8-14.3,0.8-14.3
	h-0.3c0,0-4.9,9-8.3,14.3l-43.1,62.9H125V104.5z"/>
<path class="st0" d="M234.7,89h23.7c6.9,40.4,12.2,69,15.9,85.8s6.4,25.2,8.1,25.3c1.7,0,4.4-8.4,8.1-25.3
	c3.7-16.8,9-45.4,15.9-85.8h23.7l10.6,98.6h-15.5l-8.2-82.1c-0.3,2.1-0.7,4.4-1.1,6.7c-0.4,2.4-0.8,4.9-1.2,7.5
	c-4.7,28.1-8.3,48.4-10.9,60.8c-2.6,12.4-5.5,21.7-8.8,28c-3.3,6.3-7.6,9.4-13,9.4s-9.7-3.1-13-9.4c-3.3-6.3-6.2-15.6-8.8-28
	c-2.6-12.4-6.2-32.7-10.9-60.8c-0.4-2.6-0.8-5.1-1.2-7.5c-0.4-2.4-0.8-4.6-1.1-6.7l-8.2,82.1H224L234.7,89z"/>
<path class="st1" d="M428.2,62.2c-56.7,3-59.1,5.4-62.2,62.2c-3-56.7-5.4-59.1-62.2-62.2c56.7-3,59.1-5.4,62.2-62.2
	C369.1,56.8,371.5,59.2,428.2,62.2z"/>
</svg>
