<svg width="547" height="326" viewBox="0 0 547 326" fill="none" xmlns="http://www.w3.org/2000/svg">
<path d="M134.215 127.912V116H148.879V127.912C178.052 127.912 197 145.105 197 170.997C197 197.296 178.239 214.631 148.926 214.631V228H134.215V214.631C104.761 214.6 86 197.265 86 170.997C86 145.105 104.761 127.912 134.215 127.912ZM134.215 202.108V140.403C113.547 140.403 101.102 152.001 101.102 170.966C101.102 190.353 113.547 202.108 134.215 202.108ZM181.851 170.997C181.851 152.032 169.344 140.434 148.879 140.434V202.139C169.391 202.108 181.851 190.353 181.851 170.997Z" fill="#1C1E23"/>
<path d="M209.442 135.473C209.499 135.057 209.459 134.635 209.325 134.238C209.192 133.841 208.968 133.48 208.672 133.184C208.375 132.887 208.015 132.664 207.617 132.53C207.22 132.396 206.798 132.356 206.383 132.413H200.393V120.447H214.517C220.779 120.447 223.409 123.092 223.409 129.354V183.179C223.409 188.74 222.58 197.218 222.58 197.218H222.866C222.866 197.218 228.142 188.326 231.63 183.036L274.518 120.447H288.157V203.623C288.112 204.035 288.16 204.453 288.297 204.845C288.435 205.237 288.659 205.593 288.953 205.886C289.246 206.18 289.602 206.404 289.994 206.542C290.386 206.679 290.804 206.727 291.216 206.682H297.192V218.648H283.139C276.734 218.648 274.104 216.003 274.104 209.741V155.773C274.104 150.355 274.933 141.477 274.933 141.477H274.661C274.661 141.477 269.786 150.512 266.312 155.773L223.195 218.676H209.442V135.473Z" fill="#1C1E23"/>
<path d="M319.079 120.02H342.739C349.621 160.383 354.91 188.975 358.608 205.797C362.306 222.619 365.008 231.039 366.714 231.058C368.439 231.058 371.146 222.638 374.834 205.797C378.523 188.956 383.808 160.364 390.689 120.02H414.363L424.985 218.664H409.503L401.311 136.575C401.011 138.691 400.653 140.949 400.253 143.323C399.853 145.696 399.438 148.198 399.038 150.828C394.377 178.963 390.76 199.221 388.187 211.601C385.614 223.982 382.683 233.312 379.395 239.593C376.107 245.864 371.78 249 366.414 249C361.048 249 356.726 245.864 353.447 239.593C350.159 233.331 347.224 224.001 344.641 211.601C342.058 199.202 338.441 178.944 333.79 150.828C333.39 148.198 332.985 145.696 332.575 143.323C332.174 140.949 331.817 138.691 331.517 136.575L323.325 218.664H308.457L319.079 120.02Z" fill="#1C1E23"/>
<path d="M512.629 93.1885C455.899 96.1943 453.515 98.6127 450.44 155.377C447.469 98.6818 445.051 96.2634 388.252 93.1885C444.947 90.2173 447.366 87.7988 450.44 31C453.515 87.7988 455.899 90.2173 512.629 93.1885Z" fill="#FF293F"/>
</svg>
