<svg width="620" height="620" viewBox="0 0 620 620" fill="none" xmlns="http://www.w3.org/2000/svg">
<path d="M146.309 137.305L157.113 147.422L159.677 144.697L143.936 129.976L140.673 133.461L147.686 148.773L147.516 148.942L131.733 142.944L128.471 146.429L144.19 161.129L146.754 158.404L135.928 148.266L136.076 148.14L150.927 153.884L152.855 151.857L146.16 137.453L146.309 137.305Z" fill="#1C1E23"/>
<path d="M158.385 131.243C159.656 132.86 161.298 134.15 163.173 135.003C164.789 135.712 166.575 135.946 168.321 135.679C170.069 135.428 171.712 134.697 173.066 133.567C174.467 132.468 175.537 131.007 176.159 129.343C176.755 127.69 176.865 125.902 176.477 124.189C176 122.185 175.048 120.324 173.702 118.761C172.463 117.117 170.842 115.797 168.977 114.917C167.371 114.199 165.589 113.965 163.85 114.241C162.108 114.536 160.47 115.274 159.097 116.384C157.724 117.494 156.661 118.938 156.012 120.578C155.416 122.23 155.306 124.018 155.694 125.731C156.116 127.763 157.041 129.658 158.385 131.243ZM159.465 121.824C159.822 120.79 160.46 119.876 161.308 119.184C162.152 118.479 163.182 118.031 164.274 117.895C165.394 117.78 166.522 118.001 167.516 118.529C169.988 119.931 171.864 122.184 172.791 124.865C173.109 125.948 173.109 127.098 172.791 128.181C172.433 129.219 171.786 130.135 170.926 130.821C170.093 131.53 169.069 131.978 167.982 132.109C166.855 132.223 165.72 132.003 164.719 131.476C162.245 130.08 160.374 127.824 159.465 125.14C159.147 124.057 159.147 122.906 159.465 121.824Z" fill="#1C1E23"/>
<path d="M195.267 108.687C195.508 109.247 195.631 109.851 195.627 110.461C195.636 111.024 195.535 111.583 195.331 112.108C195.128 112.647 194.834 113.147 194.462 113.587C194.061 114.051 193.589 114.45 193.064 114.77C192.157 115.383 191.088 115.714 189.992 115.72C188.866 115.697 187.771 115.352 186.835 114.727C185.663 113.912 184.675 112.862 183.933 111.644C183.14 110.474 182.605 109.149 182.365 107.758C182.168 106.644 182.308 105.497 182.768 104.463C183.222 103.47 183.958 102.633 184.886 102.055C185.418 101.713 185.996 101.45 186.602 101.274C187.161 101.12 187.742 101.07 188.318 101.126C188.887 101.173 189.441 101.331 189.95 101.59C190.505 101.867 191.001 102.247 191.411 102.71L194.716 100.598C193.994 99.7399 193.117 99.0237 192.132 98.4858C191.214 97.9843 190.206 97.6685 189.166 97.5565C188.121 97.4517 187.066 97.5375 186.052 97.8099C184.952 98.0939 183.906 98.5578 182.959 99.1828C181.446 100.111 180.215 101.432 179.399 103.006C178.612 104.58 178.296 106.347 178.489 108.096C178.72 110.14 179.447 112.097 180.607 113.798C181.662 115.523 183.114 116.971 184.844 118.022C186.35 118.927 188.086 119.382 189.844 119.332C191.627 119.248 193.354 118.686 194.843 117.705C195.869 117.128 196.786 116.377 197.555 115.488C198.227 114.651 198.724 113.689 199.017 112.658C199.308 111.679 199.423 110.656 199.356 109.637C199.32 108.586 199.075 107.552 198.636 106.596L195.267 108.687Z" fill="#1C1E23"/>
<path d="M212.703 107.187L208.55 98.7392L210.266 97.9155L220.795 103.217L225.117 101.105L211.961 94.5151L215.266 81.9696L210.944 84.0816L207.978 95.381L207.11 95.8246L203.191 87.8833L199.674 89.5941L209.207 108.898L212.703 107.187Z" fill="#1C1E23"/>
<path d="M241.005 77.2386C239.718 76.0396 238.117 75.227 236.387 74.8943C234.64 74.5694 232.837 74.7301 231.176 75.3589C229.515 75.9443 228.049 76.9747 226.938 78.3369C225.793 79.6877 225.058 81.3362 224.82 83.089C224.612 85.1393 224.896 87.2094 225.646 89.1294C226.291 91.1234 227.427 92.9244 228.951 94.3672C230.239 95.5663 231.839 96.3789 233.569 96.7116C235.361 97.0196 237.202 96.8221 238.887 96.1414C240.546 95.5531 242.011 94.5232 243.124 93.1634C244.279 91.8184 245.015 90.167 245.242 88.4113C245.471 86.3607 245.187 84.2856 244.416 82.3709C243.725 80.4039 242.553 78.6398 241.005 77.2386ZM241.302 87.7988C241.254 88.9267 240.871 90.0149 240.2 90.9246C239.537 91.7939 238.63 92.4479 237.595 92.8043C236.569 93.1991 235.45 93.2871 234.374 93.0578C233.279 92.7779 232.287 92.1916 231.514 91.3682C230.55 90.3349 229.826 89.1015 229.396 87.7566C228.851 86.4174 228.605 84.976 228.676 83.5325C228.729 82.4058 229.112 81.3193 229.777 80.4067C230.453 79.5413 231.365 78.8886 232.404 78.527C233.43 78.131 234.549 78.0429 235.624 78.2735C236.724 78.5444 237.718 79.1321 238.484 79.9632C239.442 81.0021 240.164 82.2337 240.603 83.5747C241.162 84.9318 241.401 86.3985 241.302 87.8622V87.7988Z" fill="#1C1E23"/>
<path d="M268.357 78.2947C267.774 77.6813 267.045 77.2238 266.239 76.9641C265.492 76.7273 264.7 76.6766 263.929 76.8163V76.6051C264.555 76.2981 265.115 75.8752 265.582 75.359C266.04 74.8425 266.373 74.2284 266.556 73.5637C266.746 72.808 266.746 72.0174 266.556 71.2616C266.328 70.2537 265.803 69.3369 265.048 68.6292C264.293 67.9215 263.342 67.4555 262.319 67.291C261.006 67.0742 259.661 67.1463 258.379 67.5022L250.35 69.4664L255.455 90.3544L263.929 88.2424C265.308 87.9483 266.608 87.3651 267.743 86.5316C268.61 85.8616 269.259 84.9502 269.607 83.9127C269.894 82.8976 269.894 81.8231 269.607 80.808C269.412 79.8777 268.982 79.0126 268.357 78.2947ZM254.883 71.6629L258.718 70.7125C259.618 70.4234 260.594 70.4837 261.451 70.8814C261.789 71.0685 262.083 71.3255 262.313 71.6351C262.543 71.9448 262.704 72.2999 262.785 72.6767C262.956 73.2343 262.956 73.8298 262.785 74.3874C262.578 74.9113 262.234 75.3706 261.79 75.718C261.296 76.0981 260.725 76.3649 260.116 76.4995L256.303 77.471L254.883 71.6629ZM265.328 83.8071C264.613 84.6271 263.629 85.1663 262.552 85.3278L258.464 86.3204L256.959 80.1955L261.196 79.1817C261.893 79.0149 262.619 79.0149 263.315 79.1817C263.921 79.3178 264.478 79.6174 264.925 80.0477C265.354 80.4783 265.655 81.0194 265.794 81.6106C265.886 81.9882 265.892 82.3815 265.811 82.7616C265.73 83.1418 265.565 83.499 265.328 83.8071Z" fill="#1C1E23"/>
<path d="M291.428 77.9779C290.942 79.0183 290.09 79.8449 289.034 80.3011C288.471 80.5569 287.87 80.7209 287.254 80.7869C286.153 80.9636 285.025 80.7991 284.021 80.3156C283.017 79.8321 282.186 79.053 281.64 78.0835C280.925 76.854 280.484 75.4853 280.348 74.0706C280.109 72.6629 280.189 71.2197 280.581 69.8465C280.885 68.7564 281.504 67.7795 282.361 67.0375C283.201 66.3316 284.234 65.8906 285.326 65.7703C285.944 65.6744 286.573 65.6744 287.191 65.7703C287.77 65.8531 288.325 66.0544 288.822 66.3617C289.319 66.6513 289.757 67.0309 290.114 67.4811C290.489 67.9594 290.769 68.504 290.941 69.0862L294.839 68.6004C294.574 67.5023 294.091 66.4681 293.419 65.5591C292.802 64.7132 292.025 63.9957 291.131 63.4471C290.231 62.9083 289.241 62.5362 288.208 62.3488C287.085 62.1674 285.941 62.1674 284.818 62.3488C283.052 62.5532 281.375 63.2321 279.967 64.313C278.583 65.4091 277.54 66.8738 276.958 68.5371C276.303 70.4875 276.128 72.5667 276.45 74.5986C276.683 76.6488 277.41 78.6125 278.568 80.3222C279.552 81.7834 280.934 82.9339 282.551 83.6381C284.191 84.3178 285.984 84.5439 287.742 84.2929C288.928 84.1491 290.081 83.8064 291.152 83.2791C292.107 82.7932 292.961 82.1342 293.673 81.336C294.359 80.5709 294.904 79.6916 295.283 78.7382C295.644 77.7856 295.838 76.7783 295.855 75.7602L291.851 76.2249C291.826 76.8312 291.682 77.4267 291.428 77.9779Z" fill="#1C1E23"/>
<path d="M317.231 82.1386L322.04 82.0752L312.972 70.5224L321.341 60.5747L316.532 60.6592L308.99 69.6142H308.015L307.867 60.7859L303.969 60.8493L304.308 82.3498L308.206 82.2864L308.057 72.8879L309.985 72.8668L317.231 82.1386Z" fill="#1C1E23"/>
<path d="M337.949 61.673L328.246 82.3287L332.483 82.73L334.792 77.64L342.864 78.4425L344.093 83.8916L348.33 84.314L342.694 62.1587L337.949 61.673ZM336.063 74.6198L339.834 66.2983H340.004L342.122 75.2111L336.063 74.6198Z" fill="#1C1E23"/>
<path d="M367.566 66.1927C366.172 65.8692 364.723 65.8692 363.329 66.1927C362.167 66.4847 361.119 67.1174 360.321 68.009C359.493 68.9596 358.931 70.1104 358.69 71.3461C358.403 72.5664 358.439 73.8401 358.795 75.0421C359.185 76.1845 359.926 77.1751 360.914 77.8723C361.041 77.962 361.175 78.0398 361.316 78.1046L354.961 85.4967L359.198 86.4049L364.876 79.583L368.774 80.4067L367.1 88.0311L370.935 88.8548L375.489 67.8401L367.566 66.1927ZM365.998 76.4783C365.196 76.3317 364.431 76.0226 363.753 75.5701C363.235 75.2319 362.853 74.7238 362.672 74.1339C362.491 73.4846 362.491 72.798 362.672 72.1486C362.793 71.4804 363.085 70.8546 363.52 70.3323C363.934 69.8522 364.504 69.531 365.13 69.4241C365.925 69.2481 366.75 69.2481 367.545 69.4241L371.041 70.1633L369.536 77.1542L365.998 76.4783Z" fill="#1C1E23"/>
<path d="M399.153 82.202L399.323 82.2864L399.28 98.1689L401.886 99.225L412.945 87.8411L413.135 87.9045L407.564 101.59L411.038 103.006L419.152 83.089L414.724 81.2938L402.903 93.3113L402.67 93.2268L402.628 76.3939L398.2 74.5986L390.086 94.5151L393.539 95.9091L399.153 82.202Z" fill="#1C1E23"/>
<path d="M420.91 108.117L425.147 104.357L432.223 108.328L431.185 113.819L434.808 115.931L438.727 93.4802L434.49 91.1147L417.309 106.174L420.91 108.117ZM434.447 96.0991L432.753 105.075L427.435 102.161L434.214 96.0147L434.447 96.0991Z" fill="#1C1E23"/>
<path d="M447.139 124.738C448.097 125.442 449.173 125.971 450.316 126.301C451.347 126.603 452.424 126.71 453.494 126.618C455.559 126.398 457.476 125.446 458.896 123.936L455.697 121.613C455.264 122.036 454.753 122.373 454.193 122.605C453.671 122.827 453.109 122.942 452.541 122.943C451.965 122.963 451.391 122.877 450.846 122.69C450.264 122.488 449.714 122.204 449.215 121.845C448.318 121.223 447.62 120.358 447.202 119.353C446.794 118.296 446.705 117.143 446.948 116.037C447.269 114.65 447.883 113.346 448.749 112.214C449.535 111.041 450.569 110.054 451.778 109.32C452.743 108.726 453.864 108.431 454.998 108.476C456.102 108.533 457.163 108.915 458.049 109.574C458.558 109.931 459.009 110.366 459.384 110.862C459.744 111.32 460.01 111.844 460.167 112.404C460.342 112.949 460.399 113.525 460.337 114.094C460.281 114.702 460.116 115.296 459.85 115.847L463.049 118.128C463.59 117.138 463.942 116.057 464.087 114.939C464.212 113.898 464.133 112.844 463.854 111.834C463.561 110.828 463.087 109.883 462.455 109.046C461.781 108.135 460.966 107.336 460.04 106.68C458.608 105.631 456.916 104.989 455.147 104.822C453.394 104.677 451.637 105.036 450.083 105.857C448.262 106.828 446.706 108.227 445.55 109.933C444.299 111.566 443.469 113.481 443.135 115.509C442.847 117.245 443.067 119.027 443.77 120.641C444.49 122.292 445.656 123.711 447.139 124.738Z" fill="#1C1E23"/>
<path d="M467.539 140.832L479.742 127.252L484.721 131.687L486.903 129.258L474.086 117.811L471.904 120.24L476.861 124.675L464.658 138.255L467.539 140.832Z" fill="#1C1E23"/>
<path d="M487.114 160.854L489.529 158.658L482.665 151.139L487.029 147.189L493.342 154.117L495.758 151.92L489.444 144.993L493.766 141.064L500.588 148.52L503.003 146.323L493.576 135.974L477.623 150.463L487.114 160.854Z" fill="#1C1E23"/>
<path d="M494.53 170.147L500.377 165.923L502.834 169.218C503.66 170.416 504.775 171.389 506.075 172.048C507.186 172.588 508.432 172.786 509.656 172.618C510.912 172.393 512.1 171.881 513.125 171.123C514.15 170.364 514.986 169.38 515.566 168.246C516.093 167.142 516.277 165.907 516.096 164.698C515.852 163.272 515.255 161.929 514.359 160.791L509.55 154.307L492.199 167.106L494.53 170.147ZM511.478 162.164C511.981 162.78 512.336 163.502 512.516 164.276C512.621 164.929 512.525 165.599 512.24 166.198C511.893 166.802 511.423 167.327 510.862 167.742C510.3 168.156 509.659 168.45 508.978 168.605C508.313 168.705 507.634 168.602 507.029 168.31C506.299 167.931 505.674 167.38 505.207 166.705L503.088 163.832L509.444 159.186L511.478 162.164Z" fill="#1C1E23"/>
<path d="M510.248 184.087C509.281 185.557 508.752 187.271 508.723 189.029C508.764 190.508 509.113 191.963 509.747 193.301C510.382 194.639 511.288 195.831 512.409 196.801C513.995 198.216 516.065 198.972 518.192 198.913C519.21 198.888 520.215 198.681 521.158 198.301L519.188 194.879C518.622 195.1 518.016 195.201 517.409 195.175C516.841 195.151 516.282 195.03 515.756 194.816C515.234 194.579 514.754 194.258 514.337 193.865C513.89 193.442 513.505 192.959 513.193 192.429C512.632 191.492 512.353 190.415 512.388 189.324C512.457 188.204 512.846 187.126 513.511 186.22C514.376 185.087 515.474 184.151 516.731 183.474C517.933 182.722 519.284 182.239 520.692 182.059C521.817 181.917 522.959 182.108 523.976 182.608C524.956 183.12 525.766 183.905 526.306 184.868C526.611 185.406 526.846 185.981 527.005 186.579C527.1 187.152 527.1 187.737 527.005 188.311C526.915 188.873 526.729 189.416 526.455 189.916C526.152 190.451 525.749 190.924 525.268 191.31L527.26 194.71C528.168 194.037 528.931 193.19 529.505 192.218C530.053 191.328 530.414 190.336 530.565 189.303C530.73 188.264 530.694 187.203 530.459 186.177C530.222 185.073 529.8 184.016 529.209 183.052C528.351 181.507 527.083 180.229 525.544 179.356C524 178.502 522.243 178.106 520.48 178.215C518.433 178.414 516.453 179.048 514.673 180.076C512.893 181.103 511.355 182.5 510.163 184.171L510.248 184.087Z" fill="#1C1E23"/>
<path d="M519.974 212.219L528.596 208.417L529.359 210.17L523.596 220.435L525.524 224.828L532.685 212.008L545.121 215.831L543.193 211.437L531.986 207.995L531.583 207.108L539.697 203.538L538.129 199.99L518.385 208.65L519.974 212.219Z" fill="#1C1E23"/>
<path d="M528.955 234.585L534.569 234.712L536.985 242.421L532.43 245.695L533.658 249.665L552.005 236.043L550.585 231.46L527.727 230.615L528.955 234.585ZM547.09 235.135L539.717 240.499L537.938 234.775L547.111 234.987L547.09 235.135Z" fill="#1C1E23"/>
<path d="M549.78 254.206C548.539 254.412 547.377 254.945 546.411 255.748C545.507 256.526 544.87 257.568 544.589 258.726C544.589 258.853 544.589 259.021 544.589 259.169L535.289 256.191L536.094 260.415L544.568 263.077L545.31 266.984L537.556 268.462L538.297 272.285L559.483 268.251L557.957 260.331C557.743 258.908 557.183 257.56 556.326 256.403C555.615 255.42 554.616 254.682 553.466 254.291C552.264 253.955 550.996 253.926 549.78 254.206ZM554.017 259.296C554.469 259.977 554.766 260.748 554.885 261.556L555.563 265.062L548.53 266.414L547.852 262.887C547.684 262.093 547.684 261.273 547.852 260.479C547.968 259.87 548.29 259.318 548.763 258.916C549.299 258.51 549.923 258.233 550.585 258.109C551.246 257.984 551.928 258.015 552.576 258.198C553.162 258.401 553.667 258.786 554.017 259.296Z" fill="#1C1E23"/>
<path d="M540.882 317.293L562.449 317.145L562.428 313.343L544.081 313.449L544.06 306.859L562.385 306.754L562.364 302.931L544.018 303.057L543.975 296.426L562.301 296.299L562.279 292.476L540.713 292.603L540.882 317.293Z" fill="#1C1E23"/>
<path d="M539.675 329.416L552.937 341.349L552.916 341.518L538.341 339.659L537.854 343.524L559.251 346.27L559.695 342.785L546.391 330.894L546.434 330.704L561.009 332.563L561.496 328.74L540.099 325.994L539.675 329.416Z" fill="#1C1E23"/>
<path d="M552.726 361.455L534.931 357.147L534.02 360.906L551.815 365.194L550.247 371.656L553.425 372.438L557.472 355.753L554.294 354.992L552.726 361.455Z" fill="#1C1E23"/>
<path d="M527.62 381.9C527.099 383.244 526.889 384.688 527.006 386.124C527.096 387.342 527.546 388.506 528.301 389.469C529.055 390.432 530.079 391.149 531.243 391.531C532.371 391.986 533.613 392.084 534.799 391.812C535.985 391.54 537.059 390.911 537.874 390.01C538.832 388.931 539.553 387.665 539.993 386.293L541.391 382.386L549.229 385.174L550.543 381.477L530.226 374.275L527.62 381.9ZM530.629 382.956L532.027 379.049L538.382 381.351L536.984 385.258C536.698 386.31 536.015 387.21 535.078 387.771C534.689 387.983 534.259 388.11 533.816 388.142C533.374 388.175 532.93 388.113 532.514 387.961C531.939 387.76 531.427 387.41 531.031 386.948C530.616 386.453 530.345 385.854 530.247 385.216C530.192 384.443 530.323 383.668 530.629 382.956Z" fill="#1C1E23"/>
<path d="M535.481 401.922C534.359 401.363 533.11 401.109 531.859 401.183C530.668 401.289 529.538 401.753 528.617 402.513C528.511 402.513 528.405 402.724 528.278 402.809L522.558 394.952L520.694 398.881L526.011 406.061L524.295 409.652L517.177 406.273L515.482 409.8L534.973 419.029L538.447 411.722C539.098 410.445 539.446 409.036 539.464 407.603C539.45 406.404 539.065 405.239 538.362 404.266C537.622 403.249 536.629 402.441 535.481 401.922ZM535.248 410.877L533.702 414.108L527.346 411.046L528.893 407.793C529.211 407.051 529.68 406.382 530.27 405.829C530.729 405.403 531.318 405.142 531.943 405.09C532.614 405.065 533.279 405.218 533.871 405.533C534.5 405.806 535.047 406.235 535.46 406.78C535.827 407.297 536.013 407.92 535.99 408.554C535.928 409.364 535.704 410.154 535.333 410.877H535.248Z" fill="#1C1E23"/>
<path d="M508.491 415.185L507.199 413.96L505.906 416.178C506.203 416.537 506.605 417.044 507.135 417.657C507.665 418.269 508.279 418.945 508.936 419.6C509.595 420.251 510.303 420.851 511.054 421.395L511.986 422.092L513.66 419.198L512.686 418.544C511.895 418.028 511.138 417.464 510.419 416.854C509.677 416.263 509.042 415.713 508.491 415.185Z" fill="#1C1E23"/>
<path d="M493.11 444.564C492.224 445.659 491.575 446.924 491.203 448.281C490.947 449.345 491.006 450.46 491.373 451.491C491.764 452.471 492.416 453.325 493.258 453.962C494.015 454.579 494.921 454.987 495.885 455.145C496.722 455.26 497.573 455.166 498.364 454.871C499.101 454.603 499.758 454.153 500.271 453.561L500.44 453.688C500.138 454.353 499.965 455.07 499.932 455.8C499.889 456.481 500.013 457.162 500.292 457.785C500.628 458.492 501.138 459.103 501.775 459.559C502.568 460.211 503.54 460.61 504.564 460.704C505.588 460.798 506.616 460.583 507.516 460.087C508.682 459.429 509.694 458.528 510.482 457.447L515.524 450.942L498.449 437.784L493.11 444.564ZM510.588 451.956L508.173 455.061C507.647 455.844 506.846 456.402 505.927 456.624C505.554 456.692 505.17 456.677 504.803 456.578C504.436 456.479 504.097 456.3 503.809 456.053C503.335 455.722 502.978 455.248 502.792 454.702C502.642 454.156 502.642 453.579 502.792 453.033C502.949 452.426 503.23 451.858 503.618 451.365L505.969 448.323L510.588 451.956ZM503.639 446.613L501.012 450.013C500.588 450.595 500.028 451.066 499.381 451.386C498.83 451.656 498.213 451.766 497.602 451.702C496.992 451.639 496.411 451.405 495.928 451.027C495.595 450.783 495.324 450.465 495.136 450.098C494.949 449.732 494.85 449.326 494.847 448.915C494.901 447.823 495.336 446.785 496.076 445.979L498.639 442.663L503.639 446.613Z" fill="#1C1E23"/>
<path d="M471.12 468.845L468.369 471.629L483.733 486.718L486.483 483.934L471.12 468.845Z" fill="#1C1E23"/>
<path d="M477.984 461.861C476.918 462.866 476.098 464.102 475.59 465.473C475.31 466.337 475.212 467.248 475.302 468.151C475.391 469.054 475.666 469.929 476.109 470.721C476.552 471.514 477.154 472.207 477.877 472.757C478.601 473.308 479.43 473.704 480.314 473.921C481.504 474.14 482.731 474.015 483.852 473.562C485.201 473.009 486.414 472.173 487.411 471.112L490.313 468.155L496.267 473.985L498.999 471.218L483.64 456.117L477.984 461.861ZM485.144 468.895C484.435 469.721 483.433 470.243 482.348 470.352C481.908 470.385 481.467 470.323 481.053 470.17C480.64 470.017 480.265 469.776 479.954 469.465C479.496 469.028 479.169 468.472 479.012 467.86C478.855 467.248 478.873 466.604 479.064 466.001C479.294 465.273 479.702 464.612 480.25 464.079L483.174 461.143L488.068 465.938L485.144 468.895Z" fill="#1C1E23"/>
<path d="M442.201 492.38L455.23 509.488L458.281 507.186L447.201 492.634L452.455 488.663L463.535 503.194L466.585 500.892L455.505 486.361L460.802 482.327L471.882 496.879L474.953 494.556L461.903 477.448L442.201 492.38Z" fill="#1C1E23"/>
<path d="M431.716 498.695L430.127 516.436L429.957 516.521L422.712 503.764L419.322 505.686L429.957 524.399L433.008 522.667L434.576 504.947L434.766 504.841L442.012 517.598L445.38 515.697L434.745 496.985L431.716 498.695Z" fill="#1C1E23"/>
<path d="M403.519 512.888C402.211 513.391 401.031 514.177 400.066 515.19C399.304 515.985 398.808 516.996 398.646 518.084C398.505 519.131 398.651 520.197 399.07 521.167C399.438 522.072 400.037 522.866 400.807 523.469C401.474 523.979 402.263 524.307 403.095 524.42C403.87 524.544 404.665 524.471 405.404 524.209V524.399C404.842 524.807 404.361 525.315 403.985 525.898C403.612 526.476 403.387 527.136 403.328 527.82C403.272 528.597 403.418 529.376 403.752 530.08C404.127 531.035 404.783 531.854 405.634 532.431C406.485 533.007 407.49 533.314 408.519 533.312C409.851 533.316 411.167 533.028 412.374 532.467L419.959 529.214L411.484 509.446L403.519 512.888ZM415.192 527.799L411.548 529.341C410.715 529.779 409.745 529.885 408.836 529.637C408.473 529.509 408.141 529.306 407.863 529.04C407.586 528.774 407.368 528.452 407.226 528.095C406.982 527.567 406.908 526.977 407.014 526.405C407.126 525.856 407.382 525.345 407.756 524.927C408.183 524.461 408.712 524.099 409.302 523.871L412.84 522.35L415.192 527.799ZM407.777 521.463C407.113 521.764 406.387 521.902 405.659 521.864C405.041 521.839 404.444 521.633 403.943 521.273C403.443 520.925 403.053 520.441 402.82 519.879C402.647 519.52 402.557 519.126 402.557 518.728C402.557 518.33 402.647 517.936 402.82 517.577C403.401 516.659 404.285 515.972 405.32 515.634L409.175 513.986L411.675 519.773L407.777 521.463Z" fill="#1C1E23"/>
<path d="M385.827 519.541L388.603 528.517L386.781 529.088L377.226 522.181L372.629 523.596L384.577 532.171L379.323 544.041L383.921 542.626L388.645 531.918L389.577 531.643L392.183 540.091L395.911 538.951L389.577 518.401L385.827 519.541Z" fill="#1C1E23"/>
<path d="M362.503 525.856L355.216 542.119L355.046 542.14L352.335 527.757L348.5 528.475L352.483 549.617L355.936 548.962L363.181 532.678L363.372 532.657L366.084 547.061L369.897 546.343L365.914 525.201L362.503 525.856Z" fill="#1C1E23"/>
<path d="M325.154 530.545L315.239 545.371H315.049L314.816 530.735L310.896 530.798L311.257 552.299L314.773 552.236L324.667 537.409H324.858L325.112 552.067L328.989 552.003L328.628 530.503L325.154 530.545Z" fill="#1C1E23"/>
<path d="M283.991 546.871L274.648 545.456L277.423 527.398L273.589 526.807L270.326 548.075L287.317 550.652L290.579 529.404L286.745 528.813L283.991 546.871Z" fill="#1C1E23"/>
<path d="M250.497 524.462L260.37 527.081L258.844 532.762L249.777 530.355L248.93 533.502L258.018 535.909L256.514 541.548L246.726 538.972L245.879 542.119L259.437 545.709L264.988 524.927L251.345 521.315L250.497 524.462Z" fill="#1C1E23"/>
<path d="M237.321 525.413C236.206 524.482 234.927 523.766 233.55 523.301L232.194 522.857C231.728 522.709 231.262 522.583 230.775 522.477C230.287 522.371 229.821 522.266 229.376 522.181H228.804L231.728 514.536L228.126 513.163L220.479 533.269L224.059 534.621L227.681 525.159H228.275L229.694 525.455L231.113 525.856L232.406 526.3C233.175 526.55 233.892 526.937 234.524 527.44C235.012 527.842 235.342 528.403 235.456 529.024C235.534 529.744 235.424 530.471 235.139 531.136L232.533 537.705L236.113 539.056L238.613 532.509C239.156 531.237 239.318 529.836 239.079 528.475C238.833 527.295 238.217 526.222 237.321 525.413Z" fill="#1C1E23"/>
<path d="M217.703 508.326L213.678 512.212L206.475 508.516L207.322 502.983L203.615 501.082L200.543 523.575L204.78 525.793L221.432 510.143L217.703 508.326ZM204.716 520.893H204.568L205.966 511.853L211.305 514.599L204.716 520.893Z" fill="#1C1E23"/>
<path d="M191.835 493.458L181.878 508.77L176.285 505.158L174.506 507.883L188.954 517.218L190.734 514.472L185.141 510.861L195.077 495.57L191.835 493.458Z" fill="#1C1E23"/>
<path d="M177.642 483.383L160.461 488.325L160.333 488.199L169.634 476.857L166.604 474.407L152.961 491.05L155.673 493.267L172.833 488.304L172.981 488.431L163.681 499.794L166.689 502.222L180.332 485.58L177.642 483.383Z" fill="#1C1E23"/>
<path d="M476.755 228.798C441.969 230.636 440.507 232.114 438.622 266.815C436.8 232.157 435.317 230.678 400.488 228.798C435.253 226.982 436.736 225.504 438.622 190.782C440.507 225.504 441.969 226.982 476.755 228.798Z" fill="#FF293F"/>
<path d="M237.68 265.801C229.472 252.099 217.634 240.918 203.466 233.487C188.094 225.555 170.988 221.549 153.681 221.829H151.435V181.109H127.75V221.829H125.504C108.321 221.603 91.3534 225.662 76.1429 233.635C61.7915 241.138 49.8045 252.456 41.5106 266.335C33.2166 280.214 28.9398 296.112 29.1542 312.266C28.9498 328.589 33.2283 344.657 41.5263 358.731C49.7268 372.441 61.5767 383.619 75.7616 391.024C91.1138 398.973 108.207 402.994 125.504 402.724H127.75V457.489H151.435V402.724H153.681C170.865 402.955 187.834 398.896 203.042 390.918C210.177 387.132 216.774 382.416 222.66 376.894C228.431 371.458 233.421 365.253 237.489 358.456C245.849 344.511 250.175 328.532 249.989 312.287C250.217 295.962 245.961 279.887 237.68 265.801ZM127.75 380.759H125.504C112.737 380.974 100.121 377.989 88.8117 372.079C78.2508 366.478 69.4517 358.071 63.3894 347.79C57.3579 336.916 54.194 324.692 54.194 312.266C54.194 299.839 57.3579 287.616 63.3894 276.741C69.4517 266.461 78.2508 258.054 88.8117 252.453C100.121 246.543 112.737 243.558 125.504 243.773H127.75V380.759ZM151.435 243.773H153.681C166.448 243.558 179.064 246.543 190.374 252.453C200.968 258.075 209.774 266.539 215.796 276.889C221.813 287.715 224.97 299.889 224.97 312.266C224.97 324.643 221.813 336.816 215.796 347.643C209.774 357.992 200.968 366.457 190.374 372.079C179.064 377.989 166.448 380.974 153.681 380.759H151.435V243.773Z" fill="#1C1E23"/>
<path d="M341.721 274.841V289.794L287.91 319.024V274.841H267.721V373.937H287.91V339.49L341.721 310.26V373.937H361.931V274.841H341.721Z" fill="#1C1E23"/>
<path d="M499.953 373.747H481.861L473.917 300.502L472.539 308.633C468.091 334.97 464.553 354.295 462.053 366.06C459.426 378.225 456.396 387.581 453.007 393.854C449.617 400.127 444.639 403.675 438.686 403.696C432.733 403.717 427.945 400.422 424.386 393.938C420.826 387.454 417.86 378.415 415.149 366.228C412.585 354.633 408.899 335.329 404.217 308.866L402.777 300.734L395.468 373.156V374.064H377.969L388.561 276.023V275.094H413.856H414.789L414.937 275.939C422.055 315.096 427.648 343.418 431.504 360.146C434.703 373.895 436.694 379.703 437.859 382.132L438.94 384.498L439.957 382.132C441.058 379.661 443.007 373.79 446.1 360.104C449.787 343.756 455.146 315.392 462.053 275.812L462.201 274.946H488.428L499.805 372.734L499.953 373.747Z" fill="#1C1E23"/>
</svg>
