<svg width="180" height="107" viewBox="0 0 180 107" fill="none" xmlns="http://www.w3.org/2000/svg">
<path d="M170.74 18.2986C157.471 19.0037 156.914 19.571 156.194 32.8859C155.499 19.5872 154.934 19.0199 141.648 18.2986C154.909 17.6017 155.475 17.0344 156.194 3.71143C156.914 17.0182 157.471 17.6017 170.74 18.2986Z" fill="#FF293F"/>
<path d="M79.5449 32.4971C76.4139 27.2395 71.8982 22.9493 66.494 20.098C60.6303 17.0542 54.1052 15.5172 47.5034 15.6245H46.6469V0H37.6122V15.6245H36.7556C30.201 15.5381 23.7288 17.0953 17.9267 20.1547C12.4524 23.0336 7.87998 27.3765 4.71627 32.702C1.55256 38.0275 -0.078834 44.1275 0.00292917 50.3259C-0.0750102 56.5893 1.557 62.7547 4.72227 68.1548C7.85033 73.4155 12.3705 77.7045 17.7813 80.5458C23.6429 83.5959 30.169 85.1359 36.7718 85.0273H37.6284V106.041H46.6469V85.0273H47.5034C54.0583 85.1158 60.5311 83.5585 66.3323 80.4972C69.0537 79.0443 71.5701 77.2347 73.8154 75.1161C76.0167 73.0302 77.9203 70.6494 79.4722 68.0413C82.661 62.6905 84.3112 56.5591 84.24 50.3259C84.3257 44.0648 82.7021 37.8994 79.5449 32.4971ZM37.6122 76.6072H36.7556C31.8857 76.6895 27.0731 75.5442 22.7592 73.2765C18.7308 71.1274 15.3744 67.9017 13.0619 63.9569C10.6939 59.8124 9.49025 55.1017 9.579 50.3259C9.49761 45.5478 10.7097 40.8371 13.0862 36.695C15.3986 32.7502 18.755 29.5245 22.7835 27.3754C27.0973 25.1076 31.9099 23.9624 36.7799 24.0446H37.6365L37.6122 76.6072ZM46.6469 24.0446H47.5034C52.3734 23.9624 57.186 25.1076 61.4999 27.3754C65.5411 29.5326 68.9 32.7804 71.1971 36.7517C73.5479 40.8826 74.7506 45.5702 74.6801 50.3259C74.7457 55.0831 73.5373 59.7708 71.181 63.9001C68.8839 67.8715 65.5249 71.1192 61.4837 73.2765C57.1698 75.5442 52.3572 76.6895 47.4873 76.6072H46.6469V24.0446Z" fill="#ECF0F8"/>
<path d="M119.231 35.9658V41.6954L98.7052 52.9194V35.9658H91.0039V73.9818H98.7052V60.7803L119.231 49.5563V73.9818H126.94V35.9658H119.231Z" fill="#ECF0F8"/>
<path d="M179.589 73.9088H172.687L169.657 45.796L169.132 48.9241C167.435 59.0217 166.085 66.4369 165.131 70.959C164.129 75.6188 162.974 79.2088 161.681 81.6157C160.388 84.0226 158.489 85.3922 156.218 85.4003C153.947 85.4084 152.121 84.1361 150.763 81.6563C149.406 79.1764 148.274 75.6998 147.24 71.0157C146.27 66.599 144.856 59.2 143.038 49.0457L142.488 45.9257L139.7 73.69V74.0466H133.025L137.066 36.4197V36.0712H146.715H147.07L147.127 36.3953C149.842 51.4121 151.976 62.2877 153.446 68.706C154.667 73.9818 155.426 76.2023 155.871 77.1423L156.283 78.0419L156.671 77.1423C157.091 76.1861 157.834 73.9007 159.014 68.6817C160.42 62.4173 162.465 51.5255 165.099 36.3386L165.156 36.0063H175.16L179.5 73.5279L179.589 73.9088Z" fill="#ECF0F8"/>
</svg>
