<svg width="246" height="151" viewBox="0 0 246 151" fill="none" xmlns="http://www.w3.org/2000/svg">
<path d="M170.001 18.3688C156.789 19.0657 156.234 19.6265 155.518 32.7884C154.826 19.6425 154.263 19.0818 141.035 18.3688C154.239 17.6799 154.802 17.1191 155.518 3.94922C156.234 17.1031 156.789 17.6799 170.001 18.3688Z" fill="#FF293F"/>
<path d="M79.2004 32.4039C76.083 27.2067 71.5868 22.9658 66.206 20.1473C60.3677 17.1385 53.8708 15.6191 47.2977 15.7252H46.4448V0.280273H37.4493V15.7252H36.5964C30.0702 15.6398 23.626 17.1791 17.8491 20.2033C12.3985 23.0492 7.84585 27.3422 4.69584 32.6064C1.54584 37.8707 -0.0784926 43.9007 0.00291649 50.0278C-0.0746853 56.2192 1.55026 62.3138 4.70182 67.6518C7.81633 72.8521 12.3169 77.0917 17.7043 79.9004C23.5405 82.9154 30.0383 84.4378 36.6125 84.3304H37.4654V105.103H46.4448V84.3304H47.2977C53.8242 84.4179 60.2689 82.8785 66.0451 79.8523C68.7546 78.4162 71.2602 76.6274 73.4957 74.5331C75.6875 72.4712 77.5828 70.1178 79.128 67.5396C82.303 62.2503 83.946 56.1894 83.8751 50.0278C83.9605 43.8386 82.3439 37.7441 79.2004 32.4039ZM37.4493 76.0071H36.5964C31.7476 76.0884 26.9558 74.9563 22.6606 72.7146C18.6497 70.5902 15.3078 67.4016 13.0054 63.5021C10.6476 59.4053 9.44915 54.7488 9.53751 50.0278C9.45648 45.3047 10.6633 40.648 13.0295 36.5535C15.3319 32.6541 18.6738 29.4655 22.6848 27.341C26.98 25.0994 31.7717 23.9673 36.6206 24.0485H37.4735L37.4493 76.0071ZM46.4448 24.0485H47.2977C52.1466 23.9673 56.9383 25.0994 61.2335 27.341C65.2572 29.4735 68.6016 32.6839 70.8888 36.6096C73.2293 40.693 74.4269 45.3268 74.3566 50.0278C74.422 54.7303 73.2188 59.3642 70.8727 63.446C68.5855 67.3717 65.2411 70.5822 61.2174 72.7146C56.9222 74.9563 52.1305 76.0884 47.2816 76.0071H46.4448V24.0485Z" fill="#ECF0F8"/>
<path d="M118.714 35.8325V41.4962L98.2773 52.5913V35.8325H90.6094V73.4115H98.2773V60.3618L118.714 49.2668V73.4115H126.39V35.8325H118.714Z" fill="#ECF0F8"/>
<path d="M178.811 73.3394H171.939L168.922 45.5497L168.399 48.6419C166.709 58.6235 165.366 65.9534 164.416 70.4235C163.419 75.0297 162.268 78.5785 160.981 80.9578C159.693 83.337 157.802 84.6908 155.541 84.6989C153.28 84.7069 151.462 83.4492 150.11 80.9978C148.759 78.5465 147.632 75.1098 146.602 70.4795C145.637 66.1136 144.229 58.7997 142.418 48.7621L141.871 45.6779L139.095 73.1231V73.4756H132.449L136.472 36.2811V35.9366H146.079H146.433L146.49 36.2571C149.193 51.1012 151.317 61.8518 152.782 68.1964C153.997 73.4115 154.753 75.6065 155.195 76.5358L155.606 77.425L155.992 76.5358C156.41 75.5905 157.151 73.3314 158.325 68.1724C159.725 61.98 161.761 51.2134 164.384 36.201L164.44 35.8726H174.401L178.722 72.9629L178.811 73.3394Z" fill="#ECF0F8"/>
<path d="M65.0707 103.268H65.1672L67.9834 110.15H69.2949L72.0627 103.26H72.1512L72.1754 110.166L73.9294 110.158L73.8972 100.104L71.6604 100.112L68.6834 107.41H68.5707L65.5454 100.136L63.3086 100.144L63.3408 110.198L65.0948 110.19L65.0707 103.268Z" fill="#BCC2CE"/>
<path d="M84.3014 100.544C83.5685 100.124 82.7332 99.9135 81.8876 99.9357C81.0547 99.9301 80.2353 100.146 79.514 100.561C78.8049 100.984 78.2325 101.601 77.8646 102.339C77.4401 103.203 77.2357 104.158 77.2692 105.119C77.2446 106.078 77.4544 107.029 77.8807 107.89C78.2571 108.625 78.8345 109.239 79.5462 109.661C80.2798 110.08 81.1147 110.29 81.96 110.27C82.7909 110.279 83.6086 110.063 84.3256 109.645C85.0196 109.218 85.5777 108.604 85.9348 107.874C86.344 106.996 86.5559 106.039 86.5559 105.071C86.5559 104.102 86.344 103.145 85.9348 102.267C85.5605 101.554 84.9952 100.957 84.3014 100.544ZM84.398 107.025C84.1939 107.514 83.8497 107.932 83.4083 108.227C82.9705 108.491 82.4681 108.631 81.956 108.631C81.4439 108.631 80.9415 108.491 80.5037 108.227C80.0625 107.933 79.716 107.519 79.506 107.033C79.2544 106.421 79.1312 105.764 79.1439 105.103C79.1225 104.441 79.2432 103.783 79.4979 103.172C79.7014 102.703 80.0367 102.302 80.4635 102.018C80.8973 101.741 81.4043 101.599 81.9198 101.61C82.4334 101.596 82.9398 101.732 83.3761 102.002C83.815 102.297 84.1588 102.711 84.3658 103.196C84.8378 104.44 84.8378 105.813 84.3658 107.057L84.398 107.025Z" fill="#BCC2CE"/>
<path d="M91.9616 109.621C92.6944 110.041 93.5303 110.249 94.3754 110.222C94.9238 110.227 95.4687 110.134 95.9846 109.949C96.4566 109.783 96.8932 109.53 97.272 109.204C97.6351 108.89 97.9377 108.513 98.1651 108.091C98.39 107.671 98.5398 107.216 98.6076 106.745H96.7571C96.6733 107.284 96.3854 107.772 95.9524 108.107C95.7367 108.267 95.4943 108.389 95.2363 108.467C94.9596 108.549 94.6722 108.59 94.3835 108.587C93.8723 108.603 93.3681 108.466 92.9352 108.195C92.488 107.909 92.1376 107.496 91.9294 107.009C91.4468 105.767 91.4468 104.39 91.9294 103.148C92.1363 102.661 92.4799 102.244 92.9191 101.946C93.3561 101.668 93.865 101.524 94.3835 101.53C94.6748 101.527 94.9649 101.568 95.2444 101.65C95.5046 101.732 95.7493 101.856 95.9685 102.018C96.1799 102.183 96.3574 102.387 96.4915 102.619C96.6407 102.865 96.7417 103.137 96.7892 103.42H98.6318C98.5666 102.895 98.4028 102.387 98.149 101.922C97.9072 101.499 97.5879 101.124 97.2076 100.817C96.8206 100.514 96.3817 100.283 95.9122 100.136C95.3924 99.9703 94.8486 99.8918 94.303 99.9035C93.4718 99.8913 92.6533 100.108 91.9375 100.528C91.2449 100.956 90.6872 101.57 90.3282 102.299C89.9304 103.172 89.7246 104.12 89.7246 105.079C89.7246 106.037 89.9304 106.985 90.3282 107.858C90.6909 108.59 91.2581 109.202 91.9616 109.621Z" fill="#BCC2CE"/>
<path d="M103.789 110.053L103.772 105.663L104.674 105.655L108.005 110.037L110.258 110.029L106.082 104.574L110.056 99.9756L107.804 99.9836L104.223 104.133H103.764L103.748 99.9996L101.922 100.008L101.962 110.061L103.789 110.053Z" fill="#BCC2CE"/>
<path d="M114.433 109.541C115.158 109.948 115.975 110.162 116.807 110.162C117.639 110.162 118.456 109.948 119.181 109.541C119.877 109.113 120.435 108.496 120.79 107.762C121.193 106.891 121.401 105.942 121.401 104.983C121.401 104.023 121.193 103.075 120.79 102.203C120.413 101.471 119.835 100.86 119.124 100.44C118.391 100.02 117.556 99.8095 116.71 99.8317C115.878 99.8261 115.058 100.042 114.337 100.457C113.628 100.88 113.055 101.497 112.687 102.235C112.287 103.106 112.08 104.053 112.08 105.011C112.08 105.969 112.287 106.915 112.687 107.786C113.085 108.528 113.692 109.138 114.433 109.541ZM114.345 103.06C114.544 102.573 114.886 102.157 115.327 101.866C115.765 101.6 116.269 101.458 116.783 101.458C117.297 101.458 117.801 101.6 118.239 101.866C118.678 102.161 119.022 102.575 119.229 103.06C119.701 104.304 119.701 105.677 119.229 106.921C119.033 107.398 118.699 107.805 118.268 108.09C117.838 108.376 117.332 108.527 116.815 108.523C116.301 108.532 115.795 108.393 115.359 108.123C114.918 107.829 114.571 107.415 114.361 106.929C114.11 106.317 113.987 105.66 113.999 104.999C113.974 104.335 114.092 103.674 114.345 103.06Z" fill="#BCC2CE"/>
<path d="M128.934 109.965C129.594 109.988 130.25 109.864 130.857 109.605C131.327 109.395 131.724 109.053 131.999 108.619C132.25 108.195 132.378 107.71 132.369 107.218C132.385 106.761 132.273 106.309 132.048 105.912C131.852 105.581 131.575 105.305 131.243 105.111C130.933 104.918 130.578 104.808 130.213 104.79V104.686C130.53 104.61 130.83 104.477 131.098 104.294C131.366 104.115 131.585 103.873 131.734 103.589C131.9 103.264 131.98 102.903 131.967 102.539C131.978 102.061 131.845 101.591 131.585 101.188C131.326 100.786 130.952 100.47 130.511 100.28C129.933 100.038 129.31 99.9236 128.684 99.9436H124.822V109.997L128.934 109.965ZM130.286 106.272C130.436 106.512 130.514 106.79 130.511 107.073C130.517 107.258 130.481 107.442 130.405 107.611C130.33 107.78 130.218 107.931 130.076 108.051C129.657 108.344 129.147 108.48 128.636 108.435H126.673V105.495H128.692C129.028 105.485 129.362 105.554 129.666 105.695C129.921 105.829 130.135 106.028 130.286 106.272ZM128.491 101.418C128.932 101.383 129.37 101.518 129.714 101.794C129.85 101.915 129.957 102.063 130.03 102.229C130.102 102.395 130.137 102.575 130.133 102.755C130.147 103.039 130.071 103.319 129.915 103.557C129.766 103.773 129.56 103.945 129.32 104.053C129.052 104.175 128.761 104.235 128.467 104.229H126.657V101.458L128.491 101.418Z" fill="#BCC2CE"/>
<path d="M137.592 109.46C138.324 109.881 139.16 110.092 140.006 110.069C140.553 110.067 141.097 109.975 141.615 109.797C142.087 109.627 142.523 109.371 142.902 109.044C143.267 108.731 143.57 108.354 143.795 107.93C144.024 107.512 144.174 107.056 144.238 106.584H142.395C142.346 106.868 142.242 107.14 142.09 107.386C141.952 107.61 141.771 107.806 141.558 107.962C141.344 108.125 141.101 108.247 140.842 108.323C140.581 108.399 140.31 108.442 140.038 108.451C139.524 108.46 139.018 108.321 138.581 108.05C138.137 107.764 137.789 107.351 137.584 106.865C137.101 105.623 137.101 104.246 137.584 103.004C137.785 102.513 138.13 102.095 138.573 101.802C139.009 101.527 139.514 101.382 140.03 101.385C140.324 101.382 140.618 101.426 140.899 101.514C141.159 101.589 141.402 101.714 141.615 101.882C141.826 102.046 142.006 102.247 142.146 102.475C142.292 102.721 142.391 102.993 142.435 103.276H144.278C144.217 102.753 144.053 102.246 143.795 101.786C143.56 101.358 143.24 100.981 142.854 100.68C142.472 100.372 142.035 100.138 141.567 99.9915C141.046 99.8306 140.503 99.7523 139.957 99.7592C139.127 99.7527 138.31 99.9685 137.592 100.384C136.896 100.812 136.337 101.429 135.983 102.162C135.585 103.036 135.379 103.983 135.379 104.942C135.379 105.901 135.585 106.849 135.983 107.722C136.345 108.44 136.902 109.043 137.592 109.46Z" fill="#BCC2CE"/>
<path d="M151.687 104.421L155.662 99.8232L153.409 99.8312L149.837 103.973H149.378L149.362 99.8393L147.527 99.8473L147.568 109.901L149.394 109.893L149.378 105.503L150.279 105.495L153.618 109.885L155.871 109.877L151.687 104.421Z" fill="#BCC2CE"/>
<path d="M167.908 109.829L164.311 99.7915H162.058L158.51 109.861H160.465L161.27 107.378H165.067L165.872 109.853L167.908 109.829ZM161.801 105.912L163.152 101.858H163.233L164.617 105.864L161.801 105.912Z" fill="#BCC2CE"/>
<path d="M172.864 109.813L174.836 106.128H176.694V109.813H178.529L178.489 99.7591H174.699C174.025 99.746 173.356 99.8857 172.744 100.168C172.24 100.418 171.825 100.815 171.553 101.305C171.273 101.821 171.135 102.401 171.151 102.988C171.134 103.573 171.278 104.152 171.569 104.662C171.85 105.144 172.275 105.528 172.784 105.759L172.977 105.831L170.805 109.837L172.864 109.813ZM173.243 102.058C173.384 101.798 173.612 101.595 173.886 101.481C174.237 101.332 174.616 101.261 174.997 101.273H176.678V104.614H175.005C174.624 104.624 174.244 104.562 173.886 104.429C173.618 104.318 173.393 104.124 173.243 103.877C173.105 103.593 173.034 103.282 173.034 102.968C173.034 102.653 173.105 102.342 173.243 102.058Z" fill="#BCC2CE"/>
<path d="M71.7246 120.083L68.7556 127.373L68.6349 127.381L65.6177 120.099L63.3809 120.107L63.413 130.16H65.1671L65.143 123.239H65.2395L68.0556 130.12L69.3591 130.112L72.1269 123.223H72.2235L72.2476 130.136L74.0017 130.128L73.9695 120.075L71.7246 120.083Z" fill="#BCC2CE"/>
<path d="M80.5691 120.051L77.0449 130.12H79.0001L79.8047 127.637H83.6025L84.4071 130.112H86.3542L82.7657 120.075L80.5691 120.051ZM80.3116 126.163L81.6634 122.11H81.7438L83.1277 126.115L80.3116 126.163Z" fill="#BCC2CE"/>
<path d="M90.9242 129.592C91.6573 130.012 92.4925 130.222 93.338 130.201C93.8864 130.198 94.4305 130.103 94.9472 129.92C95.4192 129.754 95.8558 129.501 96.2346 129.175C96.962 128.542 97.4362 127.669 97.5702 126.716H95.7518C95.7033 126.999 95.6024 127.271 95.4541 127.517C95.3158 127.744 95.1323 127.94 94.915 128.094C94.7031 128.256 94.4631 128.378 94.207 128.454C93.9297 128.535 93.6429 128.578 93.3541 128.582C92.8298 128.596 92.3139 128.45 91.8754 128.163C91.4368 127.877 91.0965 127.464 90.9 126.98C90.6417 126.367 90.5156 125.706 90.5299 125.042C90.5092 124.383 90.6299 123.727 90.8839 123.119C91.0908 122.632 91.4345 122.215 91.8736 121.917C92.3102 121.639 92.8194 121.494 93.338 121.501C93.6293 121.499 93.9194 121.539 94.1989 121.621C94.4592 121.703 94.7039 121.827 94.9231 121.989C95.1326 122.156 95.3098 122.36 95.4461 122.59C95.5952 122.836 95.6962 123.108 95.7438 123.391H97.5863C97.5185 122.869 97.3548 122.364 97.1036 121.901C96.864 121.474 96.5444 121.096 96.1622 120.788C95.7752 120.485 95.3363 120.254 94.8668 120.107C94.346 119.945 93.8029 119.867 93.2575 119.875C92.4268 119.866 91.6093 120.082 90.892 120.499C90.1994 120.928 89.6417 121.541 89.2828 122.27C88.8853 123.144 88.6797 124.093 88.6797 125.054C88.6797 126.014 88.8853 126.963 89.2828 127.837C89.6504 128.566 90.22 129.175 90.9242 129.592Z" fill="#BCC2CE"/>
<path d="M105.222 121.493L108.343 121.477L108.335 119.955L100.281 119.979V121.509L103.403 121.501L103.435 130.024L105.246 130.016L105.222 121.493Z" fill="#BCC2CE"/>
<path d="M118.136 129.976L118.128 128.446L113.349 128.462L113.341 125.723L117.734 125.707V124.177L113.333 124.193L113.325 121.461L118.064 121.445L118.056 119.923L111.49 119.947L111.522 130.001L118.136 129.976Z" fill="#BCC2CE"/>
<path d="M128.54 124.93C128.821 124.4 128.96 123.806 128.942 123.207C128.952 122.613 128.81 122.026 128.532 121.501C128.259 120.998 127.841 120.588 127.333 120.323C126.728 120.017 126.056 119.869 125.378 119.891H121.588V129.944H123.422V126.548H125.353C126.037 126.57 126.714 126.422 127.325 126.115C127.841 125.852 128.265 125.439 128.54 124.93ZM126.874 124.169C126.732 124.446 126.507 124.672 126.23 124.818C125.886 124.987 125.504 125.07 125.12 125.058H123.43V121.421H125.104C125.492 121.401 125.88 121.478 126.23 121.645C126.509 121.78 126.735 122.002 126.874 122.278C127.024 122.567 127.099 122.89 127.091 123.215C127.094 123.546 127.02 123.872 126.874 124.169Z" fill="#BCC2CE"/>
<path d="M139.53 129.023C139.89 128.708 140.19 128.331 140.415 127.91C140.647 127.493 140.797 127.036 140.858 126.564H139.015C138.968 126.847 138.867 127.119 138.717 127.365C138.577 127.592 138.394 127.791 138.178 127.95C137.963 128.105 137.724 128.224 137.47 128.302C137.195 128.39 136.907 128.433 136.617 128.43C136.103 128.442 135.596 128.303 135.161 128.03C134.72 127.742 134.374 127.333 134.163 126.852C133.902 126.237 133.776 125.573 133.793 124.905C133.772 124.247 133.893 123.591 134.147 122.983C134.358 122.498 134.701 122.082 135.137 121.781C135.572 121.506 136.078 121.364 136.593 121.373C136.888 121.362 137.182 121.403 137.462 121.493C137.983 121.649 138.427 121.992 138.709 122.454C138.858 122.7 138.959 122.972 139.007 123.255H140.85C140.783 122.732 140.616 122.226 140.359 121.765C140.127 121.337 139.809 120.961 139.425 120.66C139.039 120.354 138.6 120.121 138.13 119.971C137.622 119.813 137.093 119.735 136.561 119.738C135.731 119.732 134.914 119.948 134.195 120.363C133.501 120.792 132.943 121.409 132.586 122.142C132.163 123.006 131.956 123.96 131.983 124.921C131.963 125.883 132.173 126.836 132.594 127.701C132.968 128.433 133.543 129.044 134.252 129.464C134.985 129.884 135.82 130.094 136.666 130.072C137.214 130.073 137.758 129.981 138.275 129.8C138.737 129.618 139.162 129.355 139.53 129.023Z" fill="#BCC2CE"/>
<path d="M152.308 119.803L150.055 119.811L146.483 123.952H146.024L146.008 119.819L144.182 119.827L144.214 129.88H146.04L146.024 125.482H146.925L150.264 129.864L152.517 129.856L148.333 124.401L152.308 119.803Z" fill="#BCC2CE"/>
<path d="M158.704 119.778L155.188 129.848H157.135L157.939 127.365H161.737L162.582 129.84H164.537L160.94 119.794L158.704 119.778ZM158.454 125.891L159.806 121.837H159.878L161.262 125.843L158.454 125.891Z" fill="#BCC2CE"/>
<path d="M173.34 126.099V129.784H175.174V119.73H171.385C170.712 119.708 170.044 119.848 169.437 120.139C168.929 120.381 168.509 120.776 168.239 121.268C167.959 121.784 167.82 122.364 167.836 122.951C167.823 123.538 167.968 124.119 168.255 124.633C168.541 125.109 168.964 125.489 169.47 125.722L169.663 125.795L167.49 129.8H169.534L171.505 126.115L173.34 126.099ZM169.888 122.045C170.032 121.787 170.259 121.584 170.532 121.469C170.886 121.322 171.267 121.251 171.65 121.26H173.324V124.593H171.634C171.277 124.613 170.919 124.564 170.58 124.449C170.31 124.337 170.082 124.144 169.928 123.896C169.786 123.618 169.714 123.31 169.719 122.999C169.693 122.672 169.751 122.344 169.888 122.045Z" fill="#BCC2CE"/>
<path d="M195.772 119.65L193.986 119.658L194.018 128.198L190.92 128.206L190.896 119.666L189.102 119.674L189.134 128.214L186.02 128.23L185.988 119.682L184.186 119.69L184.218 129.744L195.812 129.704L195.772 119.65Z" fill="#BCC2CE"/>
<path d="M201.341 129.688L206.08 122.823H206.161L206.185 129.664H208.019L207.979 119.61H206.338L201.615 126.484H201.518L201.494 119.634H199.684L199.716 129.688H201.341Z" fill="#BCC2CE"/>
<path d="M219.195 121.092L219.187 119.57L211.133 119.594V121.124L214.255 121.116L214.287 129.64L216.097 129.632L216.073 121.108L219.195 121.092Z" fill="#BCC2CE"/>
<path d="M229.42 128.086C229.702 127.599 229.851 127.046 229.851 126.483C229.851 125.921 229.702 125.368 229.42 124.881C229.106 124.414 228.661 124.049 228.14 123.832C227.51 123.567 226.829 123.439 226.145 123.455H224.198V119.578H222.363V129.632H226.145C226.83 129.646 227.509 129.507 228.132 129.223C228.665 128.979 229.113 128.583 229.42 128.086ZM227.81 127.285C227.658 127.544 227.434 127.755 227.167 127.893C226.847 128.059 226.49 128.142 226.129 128.134H224.182V124.929H226.129C226.638 124.891 227.142 125.049 227.537 125.37C227.694 125.505 227.819 125.673 227.905 125.861C227.991 126.049 228.036 126.253 228.036 126.459C228.04 126.739 227.971 127.016 227.835 127.261L227.81 127.285Z" fill="#BCC2CE"/>
<path d="M236.34 119.506C235.665 119.493 234.997 119.633 234.384 119.915C233.881 120.165 233.466 120.562 233.194 121.052C232.91 121.567 232.771 122.148 232.791 122.735C232.774 123.32 232.919 123.899 233.21 124.409C233.489 124.891 233.914 125.272 234.425 125.498C234.487 125.53 234.551 125.557 234.618 125.578L232.445 129.584H234.481L236.452 125.899H238.319V129.584H240.153V119.53L236.34 119.506ZM236.629 124.369C236.248 124.379 235.868 124.317 235.511 124.185C235.242 124.075 235.016 123.881 234.867 123.632C234.73 123.348 234.658 123.037 234.658 122.723C234.658 122.408 234.73 122.097 234.867 121.813C235.009 121.553 235.236 121.35 235.511 121.237C235.861 121.087 236.24 121.016 236.621 121.028H238.303V124.369H236.629Z" fill="#BCC2CE"/>
<path d="M244.112 128.158V128.711C244.089 129.148 244.04 129.584 243.967 130.016C243.895 130.449 243.814 130.818 243.734 131.178C243.653 131.539 243.597 131.795 243.549 131.979H244.756L245.061 131.13C245.19 130.769 245.311 130.377 245.424 129.944C245.534 129.531 245.615 129.111 245.665 128.687L245.721 128.15L244.112 128.158Z" fill="#BCC2CE"/>
<path d="M69.8741 145.229C69.5614 145.036 69.204 144.925 68.8362 144.909V144.805C69.1559 144.731 69.4588 144.597 69.7293 144.412C69.995 144.231 70.213 143.99 70.3649 143.707C70.5273 143.382 70.6074 143.021 70.5983 142.658C70.5989 142.189 70.4709 141.729 70.2281 141.328C69.9667 140.915 69.585 140.591 69.1339 140.399C68.5593 140.157 67.9389 140.042 67.3155 140.062H63.4453L63.4855 150.116L67.589 150.084C68.2463 150.106 68.9004 149.983 69.504 149.723C69.9769 149.519 70.3756 149.175 70.6465 148.738C70.8996 148.314 71.0304 147.829 71.0247 147.336C71.0322 146.881 70.9214 146.431 70.7029 146.03C70.5009 145.696 70.2154 145.42 69.8741 145.229ZM65.2798 141.576H67.1304C67.5714 141.542 68.0091 141.676 68.3534 141.953C68.4878 142.074 68.5942 142.222 68.6651 142.388C68.7359 142.554 68.7696 142.734 68.7638 142.914C68.7849 143.197 68.7114 143.479 68.5546 143.715C68.4021 143.932 68.1936 144.104 67.9511 144.212C67.6838 144.334 67.3922 144.394 67.0982 144.388H65.2879L65.2798 141.576ZM68.7074 148.209C68.291 148.503 67.7834 148.639 67.2752 148.594H65.304V145.654H67.3235C67.6593 145.644 67.9928 145.713 68.2971 145.854C68.5566 145.983 68.7762 146.18 68.9327 146.423C69.0795 146.665 69.1574 146.942 69.158 147.224C69.165 147.412 69.1278 147.599 69.0496 147.77C68.9714 147.941 68.8543 148.091 68.7074 148.209Z" fill="#BCC2CE"/>
<path d="M84.5025 140.008L82.668 140.014L82.7032 150.068L84.5377 150.061L84.5025 140.008Z" fill="#BCC2CE"/>
<path d="M80.1018 144.276C79.4704 144.013 78.7902 143.888 78.1063 143.907H76.1592V140.03H74.3086L74.3488 150.083H78.1305C78.8154 150.098 79.4947 149.958 80.1179 149.675C80.6404 149.437 81.0821 149.053 81.3891 148.569C81.6822 148.087 81.8328 147.531 81.8236 146.967C81.8357 146.401 81.6789 145.843 81.373 145.365C81.0658 144.886 80.6237 144.507 80.1018 144.276ZM79.796 147.744C79.6452 148.002 79.4251 148.213 79.1604 148.353C78.8408 148.52 78.4829 148.6 78.1224 148.585H76.1753V145.381H78.1224C78.6318 145.349 79.1346 145.509 79.5305 145.83C79.6868 145.963 79.8117 146.129 79.8965 146.316C79.9813 146.503 80.0239 146.706 80.0213 146.911C80.0217 147.204 79.944 147.491 79.796 147.744Z" fill="#BCC2CE"/>
<path d="M98.2142 139.958L98.2383 148.498L95.1486 148.514L95.1164 139.966L93.3302 139.974L93.3624 148.514L90.2405 148.53L90.2083 139.982L88.4141 139.99L88.4462 150.044L100.041 150.004L100 139.95L98.2142 139.958Z" fill="#BCC2CE"/>
<path d="M110.564 139.918L105.841 146.783H105.745L105.721 139.934L103.91 139.942L103.942 149.996L105.568 149.988L110.307 143.123H110.387L110.411 149.972L112.246 149.964L112.206 139.91L110.564 139.918Z" fill="#BCC2CE"/>
<path d="M122.407 145.045C122.093 144.855 121.737 144.745 121.369 144.725V144.629C121.688 144.551 121.99 144.418 122.262 144.236C122.529 144.052 122.746 143.808 122.898 143.523C123.061 143.2 123.141 142.843 123.131 142.482C123.137 142.01 123.009 141.546 122.761 141.144C122.497 140.733 122.116 140.409 121.667 140.215C121.093 139.972 120.472 139.86 119.849 139.886H115.979L116.019 149.94H120.106C120.764 149.956 121.417 149.83 122.021 149.571C122.494 149.367 122.893 149.023 123.164 148.586C123.417 148.162 123.548 147.677 123.542 147.184C123.553 146.728 123.442 146.277 123.22 145.878C123.025 145.536 122.745 145.249 122.407 145.045ZM117.813 141.392H119.664C120.105 141.357 120.542 141.492 120.887 141.769C121.021 141.89 121.127 142.038 121.198 142.204C121.269 142.37 121.303 142.55 121.297 142.73C121.31 142.999 121.237 143.266 121.088 143.491C120.938 143.71 120.728 143.882 120.484 143.988C120.217 144.111 119.926 144.171 119.631 144.164H117.821L117.813 141.392ZM121.241 148.033C120.821 148.319 120.316 148.455 119.808 148.418H117.837V145.47H119.889C120.226 145.458 120.56 145.53 120.862 145.678C121.124 145.799 121.344 145.993 121.497 146.236C121.65 146.479 121.728 146.761 121.723 147.048C121.724 147.238 121.681 147.426 121.597 147.596C121.513 147.767 121.391 147.917 121.241 148.033Z" fill="#BCC2CE"/>
<path d="M134.968 139.83L132.715 139.838L129.143 143.979L128.684 143.987L128.668 139.854L126.842 139.862L126.874 149.915L128.708 149.907L128.692 145.509H129.586L132.925 149.891L135.178 149.883L131.002 144.428L134.968 139.83Z" fill="#BCC2CE"/>
<path d="M144.793 139.798L140.07 146.663H139.981L139.957 139.814L138.139 139.822L138.171 149.875L139.796 149.867L144.535 143.002H144.616L144.64 149.851L146.474 149.843L146.434 139.79L144.793 139.798Z" fill="#BCC2CE"/>
<path d="M161.857 139.733L157.134 146.607H157.038L157.013 139.749L155.203 139.757L155.235 149.811H156.861L161.6 142.946H161.68L161.704 149.787H163.539L163.499 139.733H161.857Z" fill="#BCC2CE"/>
<path d="M172.463 139.701L172.495 149.755L174.305 149.747L174.281 141.208L178.699 141.191L178.731 149.731L180.541 149.723L180.509 139.669L172.463 139.701Z" fill="#BCC2CE"/>
<path d="M186.238 148.177L186.23 145.438L190.623 145.422V143.891L186.221 143.907L186.213 141.176L190.953 141.16L190.945 139.638L184.379 139.662L184.411 149.715L191.017 149.691V148.161L186.238 148.177Z" fill="#BCC2CE"/>
<path d="M200.462 139.605V144.34L200.188 144.404L199.545 144.476L198.853 144.54H198.209C197.849 144.581 197.484 144.559 197.131 144.476C196.851 144.387 196.613 144.199 196.463 143.947C196.298 143.637 196.217 143.289 196.23 142.938V139.654H194.395V142.938C194.369 143.582 194.532 144.219 194.862 144.772C195.18 145.248 195.643 145.61 196.181 145.806C196.825 146.04 197.508 146.151 198.193 146.134C198.415 146.146 198.638 146.146 198.861 146.134L199.545 146.07L200.204 145.958L200.462 145.886V149.723H202.264V139.67L200.462 139.605Z" fill="#BCC2CE"/>
<path d="M208.975 139.573L205.451 149.643H207.406L208.211 147.16H212.009L212.854 149.635H214.833L211.236 139.597L208.975 139.573ZM208.718 145.686L210.07 141.632H210.15L211.534 145.678L208.718 145.686Z" fill="#BCC2CE"/>
<path d="M224.191 139.518L216.137 139.55L216.145 141.072L219.259 141.064L219.291 149.587H221.109L221.077 141.056L224.199 141.048L224.191 139.518Z" fill="#BCC2CE"/>
<path d="M234 139.485L229.277 146.358H229.188L229.164 139.501L227.346 139.509L227.386 149.563L229.003 149.555L233.742 142.689H233.831L233.855 149.539L235.681 149.531L235.649 139.477L234 139.485Z" fill="#BCC2CE"/>
</svg>
