<svg width="357" height="357" viewBox="0 0 357 357" fill="none" xmlns="http://www.w3.org/2000/svg">
<path d="M84.2458 79.0613L90.4671 84.8865L91.9431 83.3177L82.8796 74.8413L81.001 76.8479L85.0387 85.6648L84.9411 85.7621L75.8532 82.3083L73.9746 84.3149L83.0259 92.7791L84.502 91.2103L78.2685 85.3729L78.3539 85.3L86.9051 88.6078L88.0152 87.4404L84.1604 79.1464L84.2458 79.0613Z" fill="#BCC2CE"/>
<path d="M91.1997 75.5709C91.9317 76.5019 92.8771 77.2443 93.9566 77.7356C94.8874 78.1439 95.9157 78.2789 96.9208 78.1247C97.9274 77.9807 98.8737 77.5595 99.6533 76.9086C100.46 76.2763 101.076 75.4348 101.434 74.4764C101.777 73.5248 101.841 72.4954 101.617 71.509C101.342 70.355 100.795 69.2833 100.019 68.3836C99.3061 67.4367 98.3724 66.6771 97.299 66.1702C96.3739 65.7569 95.3479 65.6217 94.3469 65.7811C93.3433 65.9508 92.4006 66.3757 91.6099 67.0148C90.8193 67.6539 90.2074 68.4856 89.8334 69.4295C89.4905 70.3811 89.427 71.4105 89.6505 72.3968C89.8932 73.5671 90.4258 74.6583 91.1997 75.5709ZM91.8218 70.147C92.0273 69.5519 92.3948 69.0256 92.8831 68.6268C93.3689 68.2209 93.9619 67.9633 94.5909 67.885C95.2356 67.8188 95.8854 67.9458 96.4573 68.2498C97.8812 69.0571 98.9611 70.3542 99.4947 71.8982C99.678 72.5215 99.678 73.1842 99.4947 73.8075C99.2888 74.4055 98.9165 74.9327 98.4212 75.3277C97.9415 75.7357 97.3517 75.9937 96.7256 76.0695C96.077 76.1352 95.4235 76.0083 94.8471 75.7047C93.4226 74.9012 92.3454 73.6022 91.8218 72.0563C91.6385 71.433 91.6385 70.7703 91.8218 70.147Z" fill="#BCC2CE"/>
<path d="M112.437 62.5826C112.576 62.9053 112.646 63.253 112.644 63.6041C112.649 63.9283 112.591 64.2504 112.474 64.5527C112.357 64.8629 112.188 65.1509 111.973 65.404C111.742 65.6714 111.471 65.9012 111.168 66.085C110.646 66.4381 110.031 66.6286 109.4 66.6323C108.751 66.6189 108.121 66.4205 107.582 66.0607C106.907 65.5912 106.338 64.9864 105.911 64.2852C105.454 63.6116 105.146 62.8488 105.008 62.0475C104.894 61.4062 104.975 60.7456 105.24 60.1503C105.501 59.5788 105.925 59.0967 106.46 58.764C106.766 58.5672 107.098 58.4156 107.448 58.314C107.769 58.2255 108.104 58.1966 108.436 58.2289C108.763 58.2562 109.083 58.3471 109.375 58.4964C109.695 58.6554 109.98 58.8742 110.217 59.141L112.12 57.9248C111.704 57.4308 111.199 57.0184 110.632 56.7087C110.103 56.42 109.523 56.2381 108.924 56.1736C108.322 56.1133 107.715 56.1627 107.131 56.3195C106.497 56.483 105.895 56.7502 105.35 57.11C104.478 57.6443 103.77 58.4053 103.3 59.3112C102.847 60.2177 102.665 61.2352 102.776 62.2421C102.909 63.4191 103.328 64.546 103.996 65.5256C104.603 66.5186 105.439 67.3525 106.435 67.9579C107.303 68.4791 108.302 68.7408 109.314 68.7119C110.341 68.6638 111.335 68.3402 112.193 67.7754C112.784 67.4428 113.312 67.0107 113.754 66.4985C114.141 66.0166 114.427 65.4626 114.596 64.8689C114.764 64.3053 114.83 63.7165 114.791 63.1298C114.771 62.5245 114.63 61.9292 114.377 61.3786L112.437 62.5826Z" fill="#BCC2CE"/>
<path d="M122.477 61.7192L120.086 56.8548L121.074 56.3805L127.137 59.4329L129.625 58.2168L122.05 54.4225L123.953 47.1987L121.464 48.4149L119.756 54.9211L119.256 55.1765L117 50.6039L114.975 51.5889L120.464 62.7043L122.477 61.7192Z" fill="#BCC2CE"/>
<path d="M138.774 44.4747C138.032 43.7842 137.111 43.3164 136.114 43.1248C135.109 42.9377 134.07 43.0302 133.114 43.3923C132.158 43.7294 131.314 44.3227 130.674 45.1071C130.014 45.8848 129.591 46.8341 129.454 47.8433C129.335 49.0239 129.498 50.2159 129.93 51.3214C130.301 52.4696 130.955 53.5066 131.833 54.3374C132.574 55.0279 133.496 55.4957 134.492 55.6873C135.523 55.8647 136.584 55.7509 137.554 55.359C138.509 55.0202 139.353 54.4272 139.994 53.6442C140.658 52.8698 141.082 51.9189 141.213 50.908C141.345 49.7272 141.182 48.5323 140.738 47.4298C140.34 46.2972 139.665 45.2815 138.774 44.4747ZM138.945 50.5553C138.917 51.2047 138.696 51.8313 138.31 52.3552C137.928 52.8557 137.406 53.2323 136.81 53.4375C136.219 53.6648 135.575 53.7155 134.956 53.5834C134.325 53.4223 133.753 53.0847 133.309 52.6105C132.753 52.0156 132.337 51.3054 132.089 50.531C131.775 49.7599 131.634 48.9299 131.674 48.0987C131.705 47.45 131.926 46.8244 132.309 46.2989C132.698 45.8005 133.223 45.4247 133.821 45.2165C134.412 44.9885 135.056 44.9378 135.675 45.0706C136.308 45.2265 136.881 45.5649 137.322 46.0435C137.873 46.6417 138.289 47.3509 138.542 48.123C138.864 48.9044 139.002 49.749 138.945 50.5918V50.5553Z" fill="#BCC2CE"/>
<path d="M154.521 45.0827C154.185 44.7295 153.766 44.4661 153.301 44.3165C152.872 44.1802 152.415 44.151 151.972 44.2314V44.1098C152.332 43.933 152.655 43.6895 152.923 43.3923C153.187 43.0949 153.379 42.7413 153.484 42.3586C153.593 41.9234 153.593 41.4682 153.484 41.033C153.353 40.4526 153.051 39.9247 152.616 39.5172C152.181 39.1098 151.634 38.8414 151.045 38.7467C150.288 38.6219 149.514 38.6634 148.776 38.8683L144.152 39.9993L147.092 52.0268L151.972 50.8106C152.765 50.6413 153.514 50.3055 154.167 49.8256C154.667 49.4397 155.04 48.915 155.241 48.3176C155.406 47.7331 155.406 47.1144 155.241 46.5299C155.129 45.9942 154.881 45.496 154.521 45.0827ZM146.763 41.2641L148.971 40.7168C149.489 40.5503 150.051 40.5851 150.544 40.8141C150.739 40.9218 150.908 41.0698 151.041 41.2481C151.173 41.4264 151.266 41.6308 151.313 41.8478C151.411 42.1689 151.411 42.5118 151.313 42.8329C151.193 43.1345 150.996 43.399 150.74 43.599C150.455 43.8179 150.126 43.9715 149.776 44.049L147.58 44.6084L146.763 41.2641ZM152.777 48.2568C152.366 48.7289 151.799 49.0394 151.179 49.1324L148.824 49.704L147.958 46.1772L150.398 45.5935C150.799 45.4974 151.217 45.4974 151.618 45.5935C151.967 45.6718 152.288 45.8443 152.545 46.0921C152.792 46.34 152.965 46.6516 153.045 46.992C153.098 47.2094 153.101 47.4359 153.055 47.6548C153.009 47.8737 152.913 48.0794 152.777 48.2568Z" fill="#BCC2CE"/>
<path d="M167.807 44.9002C167.527 45.4992 167.036 45.9752 166.428 46.2379C166.104 46.3852 165.758 46.4796 165.403 46.5176C164.77 46.6194 164.12 46.5246 163.541 46.2462C162.963 45.9679 162.485 45.5192 162.171 44.961C161.759 44.253 161.505 43.4649 161.427 42.6503C161.289 41.8397 161.335 41.0088 161.561 40.2181C161.736 39.5904 162.092 39.0279 162.586 38.6006C163.07 38.1942 163.664 37.9402 164.293 37.871C164.649 37.8158 165.011 37.8158 165.367 37.871C165.7 37.9186 166.02 38.0346 166.306 38.2115C166.592 38.3782 166.845 38.5968 167.05 38.856C167.266 39.1315 167.427 39.4451 167.526 39.7803L169.77 39.5006C169.618 38.8682 169.34 38.2728 168.953 37.7494C168.598 37.2623 168.15 36.8491 167.636 36.5332C167.117 36.223 166.547 36.0087 165.952 35.9008C165.306 35.7964 164.647 35.7964 164.001 35.9008C162.984 36.0185 162.018 36.4095 161.207 37.0318C160.411 37.663 159.81 38.5063 159.475 39.4641C159.097 40.5872 158.997 41.7844 159.182 42.9544C159.316 44.1349 159.735 45.2656 160.402 46.2501C160.968 47.0914 161.764 47.7539 162.695 48.1594C163.639 48.5507 164.672 48.6809 165.684 48.5364C166.367 48.4536 167.031 48.2563 167.648 47.9526C168.197 47.6728 168.69 47.2934 169.1 46.8338C169.494 46.3933 169.808 45.8869 170.027 45.338C170.234 44.7895 170.346 44.2094 170.356 43.6232L168.05 43.8908C168.036 44.2399 167.953 44.5828 167.807 44.9002Z" fill="#BCC2CE"/>
<path d="M182.664 47.296L185.433 47.2595L180.212 40.6073L185.03 34.8794L182.261 34.928L177.918 40.0844H177.357L177.272 35.001L175.027 35.0375L175.223 47.4176L177.467 47.3811L177.382 41.9694L178.492 41.9572L182.664 47.296Z" fill="#BCC2CE"/>
<path d="M194.595 35.5117L189.008 47.4054L191.448 47.6365L192.777 44.7056L197.425 45.1677L198.132 48.3053L200.572 48.5486L197.327 35.7914L194.595 35.5117ZM193.509 42.9666L195.68 38.175H195.778L196.998 43.3071L193.509 42.9666Z" fill="#BCC2CE"/>
<path d="M211.647 38.1143C210.844 37.928 210.01 37.928 209.207 38.1143C208.538 38.2825 207.934 38.6468 207.475 39.1602C206.998 39.7075 206.674 40.3702 206.536 41.0817C206.37 41.7843 206.391 42.5178 206.597 43.2099C206.821 43.8677 207.248 44.438 207.816 44.8395C207.889 44.8912 207.967 44.9359 208.048 44.9733L204.389 49.2297L206.828 49.7526L210.098 45.8245L212.342 46.2988L211.378 50.689L213.586 51.1633L216.209 39.0629L211.647 38.1143ZM210.744 44.0368C210.282 43.9524 209.842 43.7744 209.451 43.5139C209.153 43.3192 208.933 43.0266 208.829 42.6869C208.724 42.313 208.724 41.9177 208.829 41.5438C208.898 41.159 209.066 40.7986 209.317 40.4979C209.556 40.2215 209.883 40.0365 210.244 39.975C210.702 39.8736 211.177 39.8736 211.635 39.975L213.647 40.4006L212.781 44.426L210.744 44.0368Z" fill="#BCC2CE"/>
<path d="M229.836 47.3324L229.934 47.381L229.909 56.5263L231.41 57.1343L237.778 50.5794L237.887 50.6159L234.679 58.4964L236.68 59.3112L241.352 47.8432L238.802 46.8095L231.995 53.7292L231.861 53.6806L231.837 43.9881L229.287 42.9543L224.615 54.4224L226.604 55.225L229.836 47.3324Z" fill="#BCC2CE"/>
<path d="M242.363 62.2544L244.803 60.0897L248.877 62.376L248.279 65.5379L250.365 66.7541L252.622 53.8267L250.182 52.4646L240.289 61.1356L242.363 62.2544ZM250.158 55.3347L249.182 60.5032L246.12 58.8249L250.024 55.286L250.158 55.3347Z" fill="#BCC2CE"/>
<path d="M257.466 71.8252C258.018 72.2305 258.637 72.5352 259.296 72.7251C259.889 72.8987 260.51 72.9606 261.126 72.9075C262.315 72.781 263.419 72.2329 264.236 71.3631L262.394 70.0253C262.145 70.2691 261.851 70.4631 261.528 70.5969C261.227 70.7247 260.904 70.7909 260.577 70.7915C260.245 70.8028 259.914 70.7534 259.601 70.6456C259.266 70.5296 258.949 70.3658 258.662 70.1591C258.145 69.8013 257.743 69.3032 257.503 68.7241C257.268 68.1156 257.217 67.4518 257.356 66.8148C257.541 66.016 257.895 65.2656 258.393 64.6136C258.846 63.9383 259.441 63.3697 260.138 62.9475C260.693 62.6049 261.339 62.4356 261.992 62.461C262.627 62.4942 263.238 62.7143 263.748 63.0934C264.042 63.2992 264.301 63.5495 264.517 63.8353C264.724 64.0988 264.878 64.4005 264.968 64.723C265.069 65.037 265.102 65.3684 265.066 65.6959C265.034 66.0465 264.939 66.3884 264.785 66.7053L266.627 68.0187C266.939 67.4489 267.142 66.8262 267.225 66.1824C267.297 65.5835 267.252 64.9762 267.091 64.3947C266.922 63.8153 266.649 63.2714 266.286 62.7894C265.897 62.2648 265.428 61.8051 264.895 61.4273C264.07 60.8231 263.096 60.4533 262.077 60.3571C261.068 60.2738 260.056 60.4806 259.162 60.9531C258.113 61.5124 257.217 62.318 256.551 63.3002C255.831 64.2407 255.353 65.3432 255.161 66.5107C254.995 67.5104 255.122 68.5365 255.527 69.4659C255.941 70.4166 256.612 71.2336 257.466 71.8252Z" fill="#BCC2CE"/>
<path d="M269.214 81.0922L276.24 73.2725L279.107 75.8264L280.363 74.4278L272.983 67.8364L271.727 69.235L274.581 71.7888L267.555 79.6085L269.214 81.0922Z" fill="#BCC2CE"/>
<path d="M280.484 92.6209L281.875 91.3561L277.923 87.0267L280.436 84.7525L284.071 88.7414L285.462 87.4767L281.826 83.4878L284.315 81.2258L288.243 85.5187L289.633 84.2539L284.205 78.2949L275.02 86.6375L280.484 92.6209Z" fill="#BCC2CE"/>
<path d="M284.754 97.972L288.121 95.5398L289.536 97.4369C290.012 98.1271 290.653 98.6873 291.402 99.0665C292.041 99.3774 292.759 99.4916 293.464 99.3949C294.187 99.2651 294.871 98.9704 295.461 98.5337C296.052 98.097 296.533 97.5302 296.867 96.8775C297.17 96.2418 297.277 95.5305 297.172 94.8344C297.031 94.0132 296.688 93.24 296.172 92.5846L293.403 88.8511L283.412 96.2208L284.754 97.972ZM294.513 93.3751C294.802 93.7298 295.007 94.1457 295.111 94.5912C295.171 94.9676 295.116 95.3534 294.952 95.6978C294.752 96.0456 294.481 96.3483 294.158 96.5869C293.835 96.8255 293.465 96.9948 293.073 97.0842C292.691 97.1419 292.299 97.0825 291.951 96.914C291.531 96.6958 291.171 96.3785 290.902 95.9897L289.682 94.3358L293.342 91.6603L294.513 93.3751Z" fill="#BCC2CE"/>
<path d="M293.804 105.998C293.247 106.845 292.943 107.832 292.926 108.844C292.949 109.696 293.15 110.534 293.516 111.304C293.881 112.074 294.403 112.761 295.048 113.32C295.962 114.134 297.153 114.57 298.379 114.536C298.964 114.521 299.543 114.402 300.086 114.183L298.952 112.213C298.626 112.34 298.277 112.398 297.927 112.383C297.6 112.37 297.279 112.3 296.976 112.176C296.675 112.04 296.399 111.855 296.158 111.629C295.901 111.386 295.679 111.107 295.5 110.802C295.177 110.263 295.016 109.642 295.036 109.014C295.076 108.369 295.3 107.749 295.683 107.227C296.181 106.574 296.813 106.035 297.537 105.646C298.229 105.212 299.007 104.934 299.818 104.831C300.466 104.749 301.123 104.859 301.709 105.147C302.273 105.442 302.74 105.894 303.051 106.448C303.226 106.758 303.361 107.089 303.453 107.433C303.508 107.764 303.508 108.1 303.453 108.431C303.401 108.755 303.294 109.067 303.136 109.355C302.962 109.663 302.73 109.936 302.453 110.158L303.6 112.116C304.122 111.728 304.562 111.24 304.893 110.681C305.208 110.168 305.416 109.597 305.503 109.002C305.598 108.404 305.577 107.793 305.442 107.202C305.305 106.566 305.062 105.958 304.722 105.403C304.228 104.513 303.498 103.777 302.611 103.274C301.722 102.783 300.711 102.555 299.696 102.618C298.517 102.732 297.377 103.097 296.352 103.689C295.327 104.281 294.441 105.085 293.755 106.047L293.804 105.998Z" fill="#BCC2CE"/>
<path d="M299.405 122.197L304.37 120.008L304.809 121.017L301.491 126.928L302.601 129.457L306.724 122.075L313.885 124.277L312.775 121.747L306.322 119.765L306.09 119.254L310.762 117.199L309.859 115.156L298.49 120.142L299.405 122.197Z" fill="#BCC2CE"/>
<path d="M304.577 135.076L307.809 135.149L309.2 139.588L306.577 141.473L307.285 143.759L317.849 135.915L317.031 133.276L303.869 132.79L304.577 135.076ZM315.019 135.392L310.774 138.481L309.749 135.185L315.031 135.307L315.019 135.392Z" fill="#BCC2CE"/>
<path d="M316.568 146.374C315.854 146.493 315.185 146.799 314.629 147.262C314.108 147.71 313.741 148.31 313.58 148.976C313.58 149.049 313.58 149.147 313.58 149.232L308.225 147.517L308.688 149.949L313.568 151.482L313.995 153.731L309.53 154.583L309.957 156.784L322.155 154.461L321.277 149.901C321.154 149.081 320.831 148.305 320.338 147.639C319.928 147.073 319.353 146.648 318.691 146.422C317.999 146.229 317.269 146.213 316.568 146.374ZM319.008 149.305C319.269 149.697 319.44 150.141 319.508 150.606L319.899 152.625L315.849 153.403L315.458 151.372C315.362 150.915 315.362 150.443 315.458 149.986C315.525 149.635 315.71 149.318 315.983 149.086C316.292 148.852 316.651 148.693 317.032 148.621C317.413 148.549 317.806 148.567 318.179 148.672C318.516 148.789 318.806 149.011 319.008 149.305Z" fill="#BCC2CE"/>
<path d="M311.443 182.699L323.861 182.614L323.849 180.425L313.285 180.486L313.273 176.691L323.825 176.631L323.813 174.429L313.249 174.502L313.224 170.684L323.776 170.611L323.764 168.41L311.346 168.483L311.443 182.699Z" fill="#BCC2CE"/>
<path d="M310.748 189.68L318.385 196.551L318.372 196.648L309.98 195.578L309.699 197.803L322.02 199.384L322.276 197.378L314.615 190.531L314.64 190.421L323.032 191.492L323.313 189.29L310.992 187.709L310.748 189.68Z" fill="#BCC2CE"/>
<path d="M318.264 208.129L308.017 205.648L307.492 207.812L317.739 210.281L316.836 214.002L318.666 214.452L320.996 204.845L319.166 204.407L318.264 208.129Z" fill="#BCC2CE"/>
<path d="M303.807 219.9C303.507 220.674 303.386 221.506 303.454 222.333C303.505 223.034 303.765 223.705 304.199 224.259C304.633 224.813 305.223 225.226 305.893 225.446C306.543 225.708 307.258 225.765 307.941 225.608C308.624 225.452 309.242 225.089 309.712 224.57C310.263 223.949 310.678 223.22 310.931 222.43L311.736 220.18L316.25 221.785L317.006 219.657L305.308 215.51L303.807 219.9ZM305.54 220.509L306.345 218.259L310.004 219.584L309.199 221.834C309.034 222.44 308.641 222.958 308.101 223.281C307.877 223.403 307.63 223.476 307.375 223.495C307.121 223.514 306.865 223.478 306.625 223.391C306.294 223.275 305.999 223.073 305.771 222.807C305.532 222.522 305.376 222.177 305.32 221.81C305.288 221.365 305.363 220.919 305.54 220.509Z" fill="#BCC2CE"/>
<path d="M308.334 231.429C307.688 231.108 306.969 230.961 306.248 231.004C305.562 231.065 304.912 231.332 304.381 231.77C304.32 231.77 304.26 231.891 304.186 231.94L300.893 227.416L299.819 229.678L302.881 233.813L301.893 235.88L297.794 233.934L296.818 235.965L308.041 241.28L310.042 237.072C310.416 236.337 310.617 235.525 310.627 234.701C310.619 234.01 310.397 233.339 309.993 232.779C309.567 232.193 308.995 231.728 308.334 231.429ZM308.2 236.586L307.309 238.446L303.65 236.683L304.54 234.81C304.723 234.383 304.993 233.997 305.333 233.679C305.597 233.433 305.937 233.283 306.297 233.253C306.683 233.239 307.066 233.327 307.407 233.509C307.769 233.666 308.084 233.913 308.322 234.226C308.533 234.524 308.64 234.883 308.627 235.248C308.591 235.714 308.462 236.169 308.248 236.586H308.2Z" fill="#BCC2CE"/>
<path d="M292.793 239.067L292.049 238.361L291.305 239.638C291.475 239.845 291.707 240.137 292.012 240.49C292.317 240.842 292.671 241.231 293.049 241.608C293.429 241.983 293.836 242.329 294.269 242.642L294.806 243.043L295.769 241.377L295.208 241C294.753 240.704 294.317 240.379 293.903 240.027C293.476 239.687 293.11 239.371 292.793 239.067Z" fill="#BCC2CE"/>
<path d="M283.936 255.983C283.426 256.613 283.052 257.342 282.838 258.123C282.691 258.736 282.725 259.378 282.936 259.972C283.161 260.536 283.536 261.028 284.021 261.395C284.457 261.749 284.979 261.984 285.534 262.076C286.016 262.142 286.506 262.088 286.961 261.918C287.386 261.764 287.764 261.504 288.059 261.164L288.157 261.237C287.982 261.62 287.883 262.032 287.864 262.453C287.839 262.845 287.911 263.237 288.071 263.596C288.265 264.003 288.559 264.354 288.925 264.617C289.382 264.993 289.942 265.222 290.531 265.277C291.121 265.331 291.713 265.207 292.231 264.921C292.903 264.542 293.485 264.024 293.939 263.401L296.842 259.656L287.01 252.079L283.936 255.983ZM294 260.239L292.609 262.027C292.307 262.478 291.845 262.799 291.316 262.927C291.101 262.966 290.88 262.958 290.669 262.901C290.458 262.844 290.262 262.741 290.096 262.599C289.823 262.408 289.618 262.135 289.511 261.82C289.425 261.506 289.425 261.174 289.511 260.86C289.601 260.51 289.763 260.183 289.987 259.899L291.341 258.148L294 260.239ZM289.999 257.162L288.486 259.12C288.242 259.456 287.919 259.727 287.547 259.911C287.229 260.067 286.875 260.13 286.523 260.093C286.171 260.057 285.837 259.922 285.558 259.704C285.367 259.564 285.211 259.381 285.103 259.17C284.995 258.959 284.938 258.725 284.936 258.488C284.967 257.86 285.218 257.262 285.644 256.798L287.12 254.888L289.999 257.162Z" fill="#BCC2CE"/>
<path d="M271.273 269.964L269.689 271.567L278.536 280.255L280.12 278.652L271.273 269.964Z" fill="#BCC2CE"/>
<path d="M275.227 265.943C274.613 266.521 274.141 267.233 273.848 268.023C273.688 268.52 273.631 269.045 273.682 269.565C273.734 270.085 273.892 270.588 274.147 271.045C274.403 271.501 274.749 271.9 275.166 272.217C275.582 272.534 276.06 272.762 276.569 272.887C277.254 273.013 277.96 272.941 278.606 272.68C279.382 272.362 280.081 271.881 280.655 271.27L282.326 269.567L285.754 272.924L287.328 271.331L278.484 262.635L275.227 265.943ZM279.35 269.993C278.942 270.469 278.365 270.769 277.74 270.832C277.487 270.851 277.232 270.815 276.994 270.727C276.756 270.639 276.54 270.501 276.361 270.321C276.097 270.07 275.909 269.75 275.819 269.397C275.728 269.044 275.739 268.674 275.849 268.327C275.982 267.907 276.216 267.527 276.532 267.22L278.216 265.53L281.033 268.29L279.35 269.993Z" fill="#BCC2CE"/>
<path d="M254.623 283.516L262.125 293.367L263.882 292.041L257.502 283.662L260.527 281.376L266.907 289.743L268.664 288.417L262.284 280.05L265.333 277.727L271.713 286.106L273.482 284.769L265.968 274.918L254.623 283.516Z" fill="#BCC2CE"/>
<path d="M248.585 287.152L247.67 297.367L247.573 297.416L243.401 290.071L241.449 291.177L247.573 301.952L249.33 300.955L250.232 290.752L250.342 290.691L254.514 298.036L256.453 296.942L250.33 286.167L248.585 287.152Z" fill="#BCC2CE"/>
<path d="M232.35 295.325C231.596 295.614 230.917 296.067 230.361 296.65C229.923 297.108 229.637 297.69 229.544 298.316C229.462 298.919 229.547 299.533 229.788 300.092C230 300.613 230.345 301.07 230.788 301.417C231.172 301.711 231.626 301.9 232.106 301.965C232.552 302.036 233.009 301.994 233.435 301.843V301.952C233.112 302.187 232.834 302.48 232.618 302.816C232.403 303.149 232.274 303.529 232.24 303.923C232.207 304.37 232.291 304.818 232.484 305.224C232.7 305.773 233.078 306.245 233.567 306.577C234.057 306.909 234.636 307.086 235.228 307.084C235.995 307.087 236.753 306.921 237.449 306.598L241.816 304.725L236.936 293.342L232.35 295.325ZM239.071 303.91L236.973 304.798C236.493 305.051 235.935 305.112 235.411 304.968C235.202 304.895 235.011 304.778 234.851 304.625C234.691 304.472 234.566 304.286 234.484 304.081C234.344 303.777 234.301 303.437 234.362 303.108C234.427 302.791 234.574 302.498 234.789 302.256C235.035 301.988 235.34 301.78 235.68 301.648L237.717 300.773L239.071 303.91ZM234.801 300.262C234.419 300.435 234.001 300.515 233.582 300.493C233.226 300.479 232.882 300.36 232.594 300.153C232.306 299.952 232.081 299.673 231.947 299.35C231.847 299.143 231.796 298.917 231.796 298.687C231.796 298.458 231.847 298.231 231.947 298.024C232.282 297.496 232.791 297.1 233.386 296.906L235.607 295.957L237.046 299.289L234.801 300.262Z" fill="#BCC2CE"/>
<path d="M222.162 299.155L223.76 304.324L222.711 304.652L217.21 300.675L214.562 301.49L221.442 306.428L218.417 313.262L221.064 312.447L223.785 306.282L224.321 306.124L225.822 310.988L227.969 310.331L224.321 298.499L222.162 299.155Z" fill="#BCC2CE"/>
<path d="M208.733 302.792L204.537 312.156L204.439 312.168L202.878 303.886L200.67 304.3L202.963 316.473L204.952 316.096L209.124 306.72L209.233 306.707L210.795 315.001L212.99 314.588L210.697 302.415L208.733 302.792Z" fill="#BCC2CE"/>
<path d="M187.225 305.491L181.516 314.028H181.407L181.272 305.601L179.016 305.637L179.223 318.017L181.248 317.981L186.945 309.444H187.054L187.201 317.883L189.433 317.847L189.226 305.467L187.225 305.491Z" fill="#BCC2CE"/>
<path d="M163.524 314.892L158.145 314.077L159.743 303.679L157.535 303.339L155.656 315.585L165.44 317.069L167.318 304.835L165.11 304.494L163.524 314.892Z" fill="#BCC2CE"/>
<path d="M144.237 301.989L149.922 303.497L149.044 306.768L143.823 305.382L143.335 307.194L148.568 308.58L147.702 311.827L142.066 310.344L141.578 312.156L149.385 314.223L152.581 302.256L144.725 300.177L144.237 301.989Z" fill="#BCC2CE"/>
<path d="M136.651 302.536C136.009 302 135.273 301.588 134.48 301.32L133.699 301.064C133.431 300.979 133.162 300.906 132.882 300.846C132.601 300.785 132.333 300.724 132.077 300.675H131.747L133.431 296.273L131.357 295.482L126.953 307.06L129.015 307.838L131.101 302.39H131.442L132.26 302.56L133.077 302.791L133.821 303.047C134.264 303.191 134.677 303.413 135.041 303.703C135.322 303.935 135.512 304.258 135.578 304.616C135.622 305.03 135.559 305.449 135.395 305.832L133.894 309.614L135.956 310.392L137.395 306.622C137.708 305.89 137.801 305.083 137.663 304.299C137.521 303.62 137.167 303.002 136.651 302.536Z" fill="#BCC2CE"/>
<path d="M125.355 292.698L123.038 294.935L118.89 292.807L119.378 289.621L117.243 288.526L115.475 301.478L117.914 302.755L127.502 293.744L125.355 292.698ZM117.878 299.934H117.792L118.597 294.729L121.671 296.31L117.878 299.934Z" fill="#BCC2CE"/>
<path d="M110.461 284.136L104.728 292.953L101.507 290.874L100.482 292.442L108.802 297.818L109.827 296.237L106.606 294.157L112.327 285.352L110.461 284.136Z" fill="#BCC2CE"/>
<path d="M102.288 278.335L92.3945 281.181L92.3213 281.108L97.6764 274.577L95.9321 273.167L88.0762 282.75L89.6376 284.026L99.5184 281.169L99.6038 281.242L94.2487 287.784L95.9808 289.183L103.837 279.6L102.288 278.335Z" fill="#BCC2CE"/>
<path d="M274.518 131.744C254.488 132.802 253.647 133.653 252.561 153.634C251.512 133.677 250.658 132.826 230.604 131.744C250.621 130.698 251.475 129.847 252.561 109.854C253.647 129.847 254.488 130.698 274.518 131.744Z" fill="#FF293F"/>
<path d="M136.858 153.05C132.132 145.16 125.315 138.722 117.157 134.444C108.306 129.876 98.4563 127.569 88.4908 127.731H87.1978V104.284H73.5598V127.731H72.2667C62.3724 127.601 52.6023 129.938 43.8441 134.529C35.5804 138.849 28.6782 145.366 23.9025 153.358C19.1268 161.349 16.6642 170.503 16.7876 179.805C16.67 189.204 19.1335 198.456 23.9116 206.56C28.6335 214.454 35.4568 220.89 43.6245 225.154C52.4644 229.732 62.3068 232.047 72.2667 231.892H73.5598V263.426H87.1978V231.892H88.4908C98.3855 232.024 108.156 229.687 116.914 225.093C121.021 222.913 124.82 220.198 128.209 217.018C131.532 213.888 134.406 210.315 136.748 206.402C141.562 198.372 144.053 189.171 143.946 179.817C144.077 170.417 141.626 161.161 136.858 153.05ZM73.5598 219.244H72.2667C64.9154 219.367 57.6507 217.649 51.1388 214.246C45.0578 211.021 39.9912 206.18 36.5005 200.26C33.0275 193.998 31.2057 186.96 31.2057 179.805C31.2057 172.65 33.0275 165.612 36.5005 159.35C39.9912 153.43 45.0578 148.589 51.1388 145.364C57.6507 141.961 64.9154 140.243 72.2667 140.366H73.5598V219.244ZM87.1978 140.366H88.4908C95.8421 140.243 103.107 141.961 109.619 145.364C115.719 148.602 120.79 153.475 124.257 159.435C127.722 165.669 129.539 172.678 129.539 179.805C129.539 186.932 127.722 193.941 124.257 200.175C120.79 206.135 115.719 211.008 109.619 214.246C103.107 217.649 95.8421 219.367 88.4908 219.244H87.1978V140.366Z" fill="#ECF0F8"/>
<path d="M196.766 158.255V166.866L165.781 183.697V158.255H154.156V215.316H165.781V195.481L196.766 178.65V215.316H208.403V158.255H196.766Z" fill="#ECF0F8"/>
<path d="M287.876 215.206H277.459L272.884 173.031L272.091 177.713C269.529 192.878 267.492 204.006 266.053 210.779C264.54 217.784 262.796 223.172 260.844 226.784C258.892 230.396 256.026 232.439 252.598 232.451C249.17 232.463 246.413 230.566 244.364 226.832C242.314 223.099 240.607 217.894 239.045 210.877C237.569 204.2 235.447 193.085 232.751 177.847L231.921 173.165L227.713 214.866V215.389H217.637L223.736 158.936V158.401H238.301H238.838L238.923 158.887C243.022 181.434 246.242 197.743 248.463 207.374C250.305 215.291 251.451 218.636 252.122 220.034L252.744 221.396L253.33 220.034C253.964 218.611 255.086 215.231 256.867 207.35C258.99 197.937 262.076 181.605 266.053 158.815L266.138 158.316H281.24L287.791 214.622L287.876 215.206Z" fill="#ECF0F8"/>
</svg>
