<svg width="99" height="80" viewBox="0 0 99 80" fill="none" xmlns="http://www.w3.org/2000/svg">
<path d="M0 53.3333C0 42.7628 2.65934 32.7928 7.97802 23.4234C13.2967 13.8138 20.1868 6.00601 28.6484 0L42.0659 10.4505C36.2637 14.2943 31.0659 19.4595 26.4725 25.946C22.1209 32.1922 19.5824 38.1982 18.8571 43.964L20.6703 43.6036C21.8791 43.3634 22.8462 43.2432 23.5714 43.2432C28.4066 43.2432 32.3956 45.045 35.5385 48.6486C38.9231 52.012 40.6154 56.2162 40.6154 61.2613C40.6154 66.3063 38.8022 70.7508 35.1758 74.5946C31.5495 78.1982 27.0769 80 21.7582 80C15.7143 80 10.5165 77.5976 6.16484 72.7928C2.05495 67.988 0 61.5015 0 53.3333ZM56.9341 53.3333C56.9341 42.7628 59.5934 32.7928 64.9121 23.4234C70.4725 13.8138 77.4835 6.00601 85.9451 0L99 10.4505C93.1978 14.2943 88 19.4595 83.4066 25.946C79.0549 32.1922 76.6374 38.1982 76.1538 43.964L77.6044 43.6036C78.8132 43.3634 79.7802 43.2432 80.5055 43.2432C85.3407 43.2432 89.3297 45.045 92.4725 48.6486C95.8571 52.012 97.5495 56.2162 97.5495 61.2613C97.5495 66.3063 95.7363 70.7508 92.1099 74.5946C88.4835 78.1982 84.011 80 78.6923 80C72.6483 80 67.4506 77.5976 63.0989 72.7928C58.989 67.988 56.9341 61.5015 56.9341 53.3333Z" fill="#EAEAEA"/>
</svg>
