<svg width="172" height="86" viewBox="0 0 172 86" fill="none" xmlns="http://www.w3.org/2000/svg">
<path d="M62.0267 42.6392C62.0267 47.6758 60.2748 51.654 56.7711 54.5738C53.2674 57.4936 48.2855 59.0812 41.8255 59.3367V63.3879H35.256V59.3367C28.796 59.0082 23.7958 57.4023 20.2556 54.5191C16.7519 51.6358 15 47.6758 15 42.6392C15 37.6026 16.7519 33.6426 20.2556 30.7593C23.7958 27.8396 28.796 26.2154 35.256 25.887V22H41.8255V25.887C48.2855 26.2154 53.2674 27.8396 56.7711 30.7593C60.2748 33.6426 62.0267 37.6026 62.0267 42.6392ZM41.8255 53.7526C46.2052 53.4241 49.5264 52.3292 51.7892 50.4679C54.0521 48.57 55.1835 45.9422 55.1835 42.5845C55.1835 39.2267 54.0338 36.6172 51.7345 34.7558C49.4717 32.8944 46.1687 31.8178 41.8255 31.5258V53.7526ZM21.9527 42.6392C21.9527 45.9604 23.0841 48.5518 25.347 50.4131C27.6463 52.2745 30.9493 53.3876 35.256 53.7526V31.5258C26.3871 32.1827 21.9527 35.8872 21.9527 42.6392Z" fill="#4B4E55"/>
<path d="M69.5555 23.5329H76.563V50.7416L97.1475 23.5329H103.772V61.855H96.7642V34.701L76.1798 61.855H69.5555V23.5329Z" fill="#4B4E55"/>
<path d="M149.718 61.855L149.663 36.4529L137.072 57.4753H133.896L121.305 36.7814V61.855H114.571V23.5329H120.429L135.594 48.8802L150.594 23.5329H156.397L156.507 61.855H149.718Z" fill="#4B4E55"/>
<path d="M3 3H169V82.1887H3V3Z" stroke="#4B4E55" stroke-width="6"/>
</svg>
